<svg xmlns="http://www.w3.org/2000/svg" xmlns:xlink="http://www.w3.org/1999/xlink" width="200" zoomAndPan="magnify" viewBox="0 0 375 374.999991" preserveAspectRatio="xMidYMid meet" version="1.0"><defs><g/><clipPath id="0643db677f"><path d="M 24 96.175781 L 46 96.175781 L 46 131 L 24 131 Z M 24 96.175781 " clip-rule="nonzero"/></clipPath><clipPath id="ad5d5e9df3"><path d="M 3.847656 118 L 13 118 L 13 128 L 3.847656 128 Z M 3.847656 118 " clip-rule="nonzero"/></clipPath><clipPath id="398c966e6e"><path d="M 131.761719 204.25 L 141.636719 204.25 L 141.636719 224.136719 L 131.761719 224.136719 Z M 131.761719 204.25 " clip-rule="nonzero"/></clipPath><clipPath id="3326ca9417"><path d="M 132 204.25 L 141.636719 204.25 L 141.636719 224 L 132 224 Z M 132 204.25 " clip-rule="nonzero"/></clipPath><clipPath id="e5738219b5"><path d="M 141.667969 204.722656 C 136.441406 204.722656 132.199219 208.964844 132.199219 214.191406 C 132.199219 219.417969 136.441406 223.660156 141.667969 223.660156 L 141.667969 223.324219 C 136.628906 223.324219 132.539062 219.230469 132.539062 214.191406 C 132.539062 209.152344 136.628906 205.0625 141.667969 205.0625 Z M 141.667969 204.722656 " clip-rule="evenodd"/></clipPath><linearGradient x1="0.000000105389" gradientTransform="matrix(0, 19.409723, 19.409723, 0, 141.668397, 204.723675)" y1="0" x2="0.975706" gradientUnits="userSpaceOnUse" y2="0" id="d49423f143"><stop stop-opacity="1" stop-color="rgb(59.599304%, 39.99939%, 15.299988%)" offset="0"/><stop stop-opacity="1" stop-color="rgb(59.770203%, 40.136719%, 15.306091%)" offset="0.015625"/><stop stop-opacity="1" stop-color="rgb(60.112%, 40.411377%, 15.316772%)" offset="0.03125"/><stop stop-opacity="1" stop-color="rgb(60.452271%, 40.684509%, 15.328979%)" offset="0.046875"/><stop stop-opacity="1" stop-color="rgb(60.794067%, 40.959167%, 15.341187%)" offset="0.0625"/><stop stop-opacity="1" stop-color="rgb(61.135864%, 41.233826%, 15.353394%)" offset="0.078125"/><stop stop-opacity="1" stop-color="rgb(61.477661%, 41.508484%, 15.365601%)" offset="0.09375"/><stop stop-opacity="1" stop-color="rgb(61.819458%, 41.783142%, 15.377808%)" offset="0.109375"/><stop stop-opacity="1" stop-color="rgb(62.159729%, 42.0578%, 15.390015%)" offset="0.125"/><stop stop-opacity="1" stop-color="rgb(62.501526%, 42.330933%, 15.402222%)" offset="0.140625"/><stop stop-opacity="1" stop-color="rgb(62.843323%, 42.605591%, 15.414429%)" offset="0.15625"/><stop stop-opacity="1" stop-color="rgb(63.18512%, 42.880249%, 15.426636%)" offset="0.171875"/><stop stop-opacity="1" stop-color="rgb(63.526917%, 43.154907%, 15.438843%)" offset="0.1875"/><stop stop-opacity="1" stop-color="rgb(63.867188%, 43.429565%, 15.45105%)" offset="0.203125"/><stop stop-opacity="1" stop-color="rgb(64.208984%, 43.704224%, 15.463257%)" offset="0.21875"/><stop stop-opacity="1" stop-color="rgb(64.550781%, 43.978882%, 15.475464%)" offset="0.234375"/><stop stop-opacity="1" stop-color="rgb(64.892578%, 44.252014%, 15.487671%)" offset="0.25"/><stop stop-opacity="1" stop-color="rgb(65.234375%, 44.526672%, 15.499878%)" offset="0.265625"/><stop stop-opacity="1" stop-color="rgb(65.574646%, 44.801331%, 15.512085%)" offset="0.28125"/><stop stop-opacity="1" stop-color="rgb(65.916443%, 45.075989%, 15.524292%)" offset="0.296875"/><stop stop-opacity="1" stop-color="rgb(66.25824%, 45.350647%, 15.536499%)" offset="0.3125"/><stop stop-opacity="1" stop-color="rgb(66.600037%, 45.625305%, 15.548706%)" offset="0.328125"/><stop stop-opacity="1" stop-color="rgb(66.941833%, 45.898438%, 15.560913%)" offset="0.34375"/><stop stop-opacity="1" stop-color="rgb(67.282104%, 46.173096%, 15.57312%)" offset="0.359375"/><stop stop-opacity="1" stop-color="rgb(67.623901%, 46.447754%, 15.585327%)" offset="0.375"/><stop stop-opacity="1" stop-color="rgb(67.965698%, 46.722412%, 15.597534%)" offset="0.390625"/><stop stop-opacity="1" stop-color="rgb(68.307495%, 46.99707%, 15.609741%)" offset="0.40625"/><stop stop-opacity="1" stop-color="rgb(68.649292%, 47.271729%, 15.621948%)" offset="0.421875"/><stop stop-opacity="1" stop-color="rgb(68.989563%, 47.544861%, 15.634155%)" offset="0.4375"/><stop stop-opacity="1" stop-color="rgb(69.33136%, 47.819519%, 15.646362%)" offset="0.453125"/><stop stop-opacity="1" stop-color="rgb(69.673157%, 48.094177%, 15.658569%)" offset="0.46875"/><stop stop-opacity="1" stop-color="rgb(70.014954%, 48.368835%, 15.670776%)" offset="0.484375"/><stop stop-opacity="1" stop-color="rgb(70.35675%, 48.643494%, 15.682983%)" offset="0.5"/><stop stop-opacity="1" stop-color="rgb(70.697021%, 48.918152%, 15.69519%)" offset="0.515625"/><stop stop-opacity="1" stop-color="rgb(71.038818%, 49.19281%, 15.707397%)" offset="0.53125"/><stop stop-opacity="1" stop-color="rgb(71.380615%, 49.465942%, 15.719604%)" offset="0.546875"/><stop stop-opacity="1" stop-color="rgb(71.722412%, 49.740601%, 15.731812%)" offset="0.5625"/><stop stop-opacity="1" stop-color="rgb(72.064209%, 50.015259%, 15.744019%)" offset="0.578125"/><stop stop-opacity="1" stop-color="rgb(72.40448%, 50.289917%, 15.756226%)" offset="0.59375"/><stop stop-opacity="1" stop-color="rgb(72.746277%, 50.564575%, 15.768433%)" offset="0.609375"/><stop stop-opacity="1" stop-color="rgb(73.088074%, 50.839233%, 15.78064%)" offset="0.625"/><stop stop-opacity="1" stop-color="rgb(73.429871%, 51.112366%, 15.792847%)" offset="0.640625"/><stop stop-opacity="1" stop-color="rgb(73.771667%, 51.387024%, 15.805054%)" offset="0.65625"/><stop stop-opacity="1" stop-color="rgb(74.113464%, 51.661682%, 15.817261%)" offset="0.671875"/><stop stop-opacity="1" stop-color="rgb(74.453735%, 51.93634%, 15.829468%)" offset="0.6875"/><stop stop-opacity="1" stop-color="rgb(74.795532%, 52.210999%, 15.841675%)" offset="0.703125"/><stop stop-opacity="1" stop-color="rgb(75.137329%, 52.485657%, 15.853882%)" offset="0.71875"/><stop stop-opacity="1" stop-color="rgb(75.479126%, 52.758789%, 15.866089%)" offset="0.734375"/><stop stop-opacity="1" stop-color="rgb(75.820923%, 53.033447%, 15.878296%)" offset="0.75"/><stop stop-opacity="1" stop-color="rgb(76.161194%, 53.308105%, 15.890503%)" offset="0.765625"/><stop stop-opacity="1" stop-color="rgb(76.502991%, 53.582764%, 15.90271%)" offset="0.78125"/><stop stop-opacity="1" stop-color="rgb(76.844788%, 53.857422%, 15.914917%)" offset="0.796875"/><stop stop-opacity="1" stop-color="rgb(77.186584%, 54.13208%, 15.927124%)" offset="0.8125"/><stop stop-opacity="1" stop-color="rgb(77.528381%, 54.406738%, 15.939331%)" offset="0.828125"/><stop stop-opacity="1" stop-color="rgb(77.868652%, 54.679871%, 15.951538%)" offset="0.84375"/><stop stop-opacity="1" stop-color="rgb(78.210449%, 54.954529%, 15.963745%)" offset="0.859375"/><stop stop-opacity="1" stop-color="rgb(78.552246%, 55.229187%, 15.975952%)" offset="0.875"/><stop stop-opacity="1" stop-color="rgb(78.894043%, 55.503845%, 15.988159%)" offset="0.890625"/><stop stop-opacity="1" stop-color="rgb(79.23584%, 55.778503%, 16.000366%)" offset="0.90625"/><stop stop-opacity="1" stop-color="rgb(79.576111%, 56.053162%, 16.012573%)" offset="0.921875"/><stop stop-opacity="1" stop-color="rgb(79.917908%, 56.326294%, 16.02478%)" offset="0.9375"/><stop stop-opacity="1" stop-color="rgb(80.259705%, 56.600952%, 16.036987%)" offset="0.953125"/><stop stop-opacity="1" stop-color="rgb(80.601501%, 56.87561%, 16.049194%)" offset="0.96875"/><stop stop-opacity="1" stop-color="rgb(80.943298%, 57.150269%, 16.061401%)" offset="0.984375"/><stop stop-opacity="1" stop-color="rgb(81.283569%, 57.424927%, 16.073608%)" offset="1"/></linearGradient><clipPath id="b3f771ca6d"><path d="M 134 207 L 141.636719 207 L 141.636719 222 L 134 222 Z M 134 207 " clip-rule="nonzero"/></clipPath><clipPath id="83501ed8c1"><path d="M 137 210 L 141.636719 210 L 141.636719 219 L 137 219 Z M 137 210 " clip-rule="nonzero"/></clipPath><clipPath id="7ecb3f5827"><path d="M 141.667969 204.25 L 151.578125 204.25 L 151.578125 224.136719 L 141.667969 224.136719 Z M 141.667969 204.25 " clip-rule="nonzero"/></clipPath><clipPath id="12221ff08a"><path d="M 141.667969 204.25 L 151.578125 204.25 L 151.578125 224 L 141.667969 224 Z M 141.667969 204.25 " clip-rule="nonzero"/></clipPath><clipPath id="bee2efc7bd"><path d="M 141.667969 204.722656 C 146.894531 204.722656 151.136719 208.964844 151.136719 214.191406 C 151.136719 219.417969 146.894531 223.660156 141.667969 223.660156 L 141.667969 223.324219 C 146.707031 223.324219 150.796875 219.230469 150.796875 214.191406 C 150.796875 209.152344 146.707031 205.0625 141.667969 205.0625 Z M 141.667969 204.722656 " clip-rule="evenodd"/></clipPath><linearGradient x1="0.000000105389" gradientTransform="matrix(0, 19.409723, -19.409723, 0, 141.669099, 204.723675)" y1="0" x2="0.975706" gradientUnits="userSpaceOnUse" y2="0" id="8ef32b2ba3"><stop stop-opacity="1" stop-color="rgb(59.599304%, 39.99939%, 15.299988%)" offset="0"/><stop stop-opacity="1" stop-color="rgb(59.770203%, 40.136719%, 15.306091%)" offset="0.015625"/><stop stop-opacity="1" stop-color="rgb(60.112%, 40.411377%, 15.316772%)" offset="0.03125"/><stop stop-opacity="1" stop-color="rgb(60.452271%, 40.684509%, 15.328979%)" offset="0.046875"/><stop stop-opacity="1" stop-color="rgb(60.794067%, 40.959167%, 15.341187%)" offset="0.0625"/><stop stop-opacity="1" stop-color="rgb(61.135864%, 41.233826%, 15.353394%)" offset="0.078125"/><stop stop-opacity="1" stop-color="rgb(61.477661%, 41.508484%, 15.365601%)" offset="0.09375"/><stop stop-opacity="1" stop-color="rgb(61.819458%, 41.783142%, 15.377808%)" offset="0.109375"/><stop stop-opacity="1" stop-color="rgb(62.159729%, 42.0578%, 15.390015%)" offset="0.125"/><stop stop-opacity="1" stop-color="rgb(62.501526%, 42.330933%, 15.402222%)" offset="0.140625"/><stop stop-opacity="1" stop-color="rgb(62.843323%, 42.605591%, 15.414429%)" offset="0.15625"/><stop stop-opacity="1" stop-color="rgb(63.18512%, 42.880249%, 15.426636%)" offset="0.171875"/><stop stop-opacity="1" stop-color="rgb(63.526917%, 43.154907%, 15.438843%)" offset="0.1875"/><stop stop-opacity="1" stop-color="rgb(63.867188%, 43.429565%, 15.45105%)" offset="0.203125"/><stop stop-opacity="1" stop-color="rgb(64.208984%, 43.704224%, 15.463257%)" offset="0.21875"/><stop stop-opacity="1" stop-color="rgb(64.550781%, 43.978882%, 15.475464%)" offset="0.234375"/><stop stop-opacity="1" stop-color="rgb(64.892578%, 44.252014%, 15.487671%)" offset="0.25"/><stop stop-opacity="1" stop-color="rgb(65.234375%, 44.526672%, 15.499878%)" offset="0.265625"/><stop stop-opacity="1" stop-color="rgb(65.574646%, 44.801331%, 15.512085%)" offset="0.28125"/><stop stop-opacity="1" stop-color="rgb(65.916443%, 45.075989%, 15.524292%)" offset="0.296875"/><stop stop-opacity="1" stop-color="rgb(66.25824%, 45.350647%, 15.536499%)" offset="0.3125"/><stop stop-opacity="1" stop-color="rgb(66.600037%, 45.625305%, 15.548706%)" offset="0.328125"/><stop stop-opacity="1" stop-color="rgb(66.941833%, 45.898438%, 15.560913%)" offset="0.34375"/><stop stop-opacity="1" stop-color="rgb(67.282104%, 46.173096%, 15.57312%)" offset="0.359375"/><stop stop-opacity="1" stop-color="rgb(67.623901%, 46.447754%, 15.585327%)" offset="0.375"/><stop stop-opacity="1" stop-color="rgb(67.965698%, 46.722412%, 15.597534%)" offset="0.390625"/><stop stop-opacity="1" stop-color="rgb(68.307495%, 46.99707%, 15.609741%)" offset="0.40625"/><stop stop-opacity="1" stop-color="rgb(68.649292%, 47.271729%, 15.621948%)" offset="0.421875"/><stop stop-opacity="1" stop-color="rgb(68.989563%, 47.544861%, 15.634155%)" offset="0.4375"/><stop stop-opacity="1" stop-color="rgb(69.33136%, 47.819519%, 15.646362%)" offset="0.453125"/><stop stop-opacity="1" stop-color="rgb(69.673157%, 48.094177%, 15.658569%)" offset="0.46875"/><stop stop-opacity="1" stop-color="rgb(70.014954%, 48.368835%, 15.670776%)" offset="0.484375"/><stop stop-opacity="1" stop-color="rgb(70.35675%, 48.643494%, 15.682983%)" offset="0.5"/><stop stop-opacity="1" stop-color="rgb(70.697021%, 48.918152%, 15.69519%)" offset="0.515625"/><stop stop-opacity="1" stop-color="rgb(71.038818%, 49.19281%, 15.707397%)" offset="0.53125"/><stop stop-opacity="1" stop-color="rgb(71.380615%, 49.465942%, 15.719604%)" offset="0.546875"/><stop stop-opacity="1" stop-color="rgb(71.722412%, 49.740601%, 15.731812%)" offset="0.5625"/><stop stop-opacity="1" stop-color="rgb(72.064209%, 50.015259%, 15.744019%)" offset="0.578125"/><stop stop-opacity="1" stop-color="rgb(72.40448%, 50.289917%, 15.756226%)" offset="0.59375"/><stop stop-opacity="1" stop-color="rgb(72.746277%, 50.564575%, 15.768433%)" offset="0.609375"/><stop stop-opacity="1" stop-color="rgb(73.088074%, 50.839233%, 15.78064%)" offset="0.625"/><stop stop-opacity="1" stop-color="rgb(73.429871%, 51.112366%, 15.792847%)" offset="0.640625"/><stop stop-opacity="1" stop-color="rgb(73.771667%, 51.387024%, 15.805054%)" offset="0.65625"/><stop stop-opacity="1" stop-color="rgb(74.113464%, 51.661682%, 15.817261%)" offset="0.671875"/><stop stop-opacity="1" stop-color="rgb(74.453735%, 51.93634%, 15.829468%)" offset="0.6875"/><stop stop-opacity="1" stop-color="rgb(74.795532%, 52.210999%, 15.841675%)" offset="0.703125"/><stop stop-opacity="1" stop-color="rgb(75.137329%, 52.485657%, 15.853882%)" offset="0.71875"/><stop stop-opacity="1" stop-color="rgb(75.479126%, 52.758789%, 15.866089%)" offset="0.734375"/><stop stop-opacity="1" stop-color="rgb(75.820923%, 53.033447%, 15.878296%)" offset="0.75"/><stop stop-opacity="1" stop-color="rgb(76.161194%, 53.308105%, 15.890503%)" offset="0.765625"/><stop stop-opacity="1" stop-color="rgb(76.502991%, 53.582764%, 15.90271%)" offset="0.78125"/><stop stop-opacity="1" stop-color="rgb(76.844788%, 53.857422%, 15.914917%)" offset="0.796875"/><stop stop-opacity="1" stop-color="rgb(77.186584%, 54.13208%, 15.927124%)" offset="0.8125"/><stop stop-opacity="1" stop-color="rgb(77.528381%, 54.406738%, 15.939331%)" offset="0.828125"/><stop stop-opacity="1" stop-color="rgb(77.868652%, 54.679871%, 15.951538%)" offset="0.84375"/><stop stop-opacity="1" stop-color="rgb(78.210449%, 54.954529%, 15.963745%)" offset="0.859375"/><stop stop-opacity="1" stop-color="rgb(78.552246%, 55.229187%, 15.975952%)" offset="0.875"/><stop stop-opacity="1" stop-color="rgb(78.894043%, 55.503845%, 15.988159%)" offset="0.890625"/><stop stop-opacity="1" stop-color="rgb(79.23584%, 55.778503%, 16.000366%)" offset="0.90625"/><stop stop-opacity="1" stop-color="rgb(79.576111%, 56.053162%, 16.012573%)" offset="0.921875"/><stop stop-opacity="1" stop-color="rgb(79.917908%, 56.326294%, 16.02478%)" offset="0.9375"/><stop stop-opacity="1" stop-color="rgb(80.259705%, 56.600952%, 16.036987%)" offset="0.953125"/><stop stop-opacity="1" stop-color="rgb(80.601501%, 56.87561%, 16.049194%)" offset="0.96875"/><stop stop-opacity="1" stop-color="rgb(80.943298%, 57.150269%, 16.061401%)" offset="0.984375"/><stop stop-opacity="1" stop-color="rgb(81.283569%, 57.424927%, 16.073608%)" offset="1"/></linearGradient><clipPath id="fe22413cbd"><path d="M 141.667969 207 L 149 207 L 149 222 L 141.667969 222 Z M 141.667969 207 " clip-rule="nonzero"/></clipPath><clipPath id="45677ecfe7"><path d="M 141.667969 210 L 146 210 L 146 219 L 141.667969 219 Z M 141.667969 210 " clip-rule="nonzero"/></clipPath></defs><g clip-path="url(#0643db677f)"><path fill="#38b6ff" d="M 32.925781 108.148438 L 42.476562 129.167969 C 54.148438 104.125 28.449219 96.175781 28.449219 96.175781 L 28.472656 96.234375 C 27.976562 97.042969 14.789062 119.15625 39.324219 130.257812 L 32.925781 108.148438 " fill-opacity="1" fill-rule="nonzero"/></g><path fill="#38b6ff" d="M 17.316406 133.8125 L 34.738281 136.910156 C 18.359375 150.335938 7.574219 132.761719 7.574219 132.761719 L 7.625 132.765625 C 8.128906 132.246094 22.042969 118.253906 34.945312 134.363281 L 17.316406 133.8125 " fill-opacity="1" fill-rule="nonzero"/><path fill="#38b6ff" d="M 48.140625 138.296875 C 48.140625 140.773438 46.128906 142.785156 43.652344 142.785156 C 41.175781 142.785156 39.164062 140.773438 39.164062 138.296875 C 39.164062 135.816406 41.175781 133.808594 43.652344 133.808594 C 46.128906 133.808594 48.140625 135.816406 48.140625 138.296875 " fill-opacity="1" fill-rule="nonzero"/><g clip-path="url(#ad5d5e9df3)"><path fill="#38b6ff" d="M 8.414062 127.042969 C 5.933594 127.042969 3.925781 125.035156 3.925781 122.554688 C 3.925781 120.078125 5.933594 118.070312 8.414062 118.070312 C 10.890625 118.070312 12.898438 120.078125 12.898438 122.554688 C 12.898438 125.035156 10.890625 127.042969 8.414062 127.042969 " fill-opacity="1" fill-rule="nonzero"/></g><path fill="#38b6ff" d="M 51.875 104.117188 C 53.214844 105.457031 53.214844 107.628906 51.875 108.96875 C 50.535156 110.308594 48.363281 110.308594 47.023438 108.96875 C 45.6875 107.628906 45.6875 105.457031 47.023438 104.117188 C 48.363281 102.777344 50.535156 102.777344 51.875 104.117188 " fill-opacity="1" fill-rule="nonzero"/><path fill="#38b6ff" d="M 22.484375 117.855469 C 23.113281 118.484375 23.113281 119.507812 22.484375 120.140625 C 21.851562 120.769531 20.828125 120.769531 20.199219 120.140625 C 19.566406 119.507812 19.566406 118.484375 20.199219 117.855469 C 20.828125 117.222656 21.851562 117.222656 22.484375 117.855469 " fill-opacity="1" fill-rule="nonzero"/><path fill="#38b6ff" d="M 13.136719 143.734375 C 14.304688 143.734375 15.253906 144.683594 15.253906 145.851562 C 15.253906 147.019531 14.304688 147.96875 13.136719 147.96875 C 11.964844 147.96875 11.019531 147.019531 11.019531 145.851562 C 11.019531 144.683594 11.964844 143.734375 13.136719 143.734375 " fill-opacity="1" fill-rule="nonzero"/><path fill="#67dcff" d="M 97.363281 231.40625 C 97.347656 231.355469 97.332031 231.308594 97.316406 231.257812 C 96.128906 227.601562 92.402344 225.347656 88.632812 226.089844 C 70.261719 229.714844 52.863281 223.3125 40.960938 211.414062 C 29.0625 199.511719 22.660156 182.113281 26.285156 163.742188 C 27.027344 159.96875 24.773438 156.246094 21.117188 155.058594 C 21.066406 155.042969 21.019531 155.027344 20.96875 155.011719 C 16.621094 153.597656 11.980469 156.277344 11.089844 160.765625 C 6.382812 184.5 14.644531 206.984375 30.019531 222.355469 C 45.390625 237.730469 67.875 245.992188 91.609375 241.285156 C 96.097656 240.394531 98.777344 235.753906 97.363281 231.40625 " fill-opacity="1" fill-rule="nonzero"/><path fill="#38b6ff" d="M 127.898438 124.476562 C 112.527344 109.101562 90.042969 100.839844 66.304688 105.546875 C 61.820312 106.4375 59.140625 111.078125 60.554688 115.425781 C 60.570312 115.476562 60.585938 115.527344 60.601562 115.574219 C 61.789062 119.230469 65.511719 121.488281 69.285156 120.742188 C 87.65625 117.117188 105.054688 123.519531 116.953125 135.421875 C 128.855469 147.320312 135.257812 164.71875 131.632812 183.089844 C 130.886719 186.859375 133.144531 190.585938 136.800781 191.773438 C 136.847656 191.789062 136.898438 191.804688 136.949219 191.820312 C 141.296875 193.234375 145.9375 190.554688 146.828125 186.070312 C 151.535156 162.332031 143.273438 139.847656 127.898438 124.476562 " fill-opacity="1" fill-rule="nonzero"/><path fill="#ffffff" d="M 84.851562 208.652344 C 83.820312 211.769531 81.351562 214.238281 78.230469 215.269531 C 77.738281 215.433594 77.398438 215.890625 77.398438 216.414062 L 77.398438 216.417969 C 77.398438 217.242188 78.207031 217.832031 78.988281 217.574219 C 82.835938 216.304688 85.878906 213.257812 87.148438 209.410156 C 87.410156 208.628906 86.820312 207.820312 85.996094 207.820312 C 85.476562 207.820312 85.015625 208.15625 84.851562 208.652344 " fill-opacity="1" fill-rule="nonzero"/><path fill="#38b6ff" d="M 115.199219 162.734375 C 112.90625 160.953125 110.03125 159.890625 106.90625 159.890625 C 99.4375 159.890625 93.382812 165.945312 93.382812 173.417969 C 93.382812 176.542969 94.445312 179.417969 96.226562 181.707031 L 115.199219 162.734375 " fill-opacity="1" fill-rule="nonzero"/><path fill="#67dcff" d="M 117.589844 165.125 L 98.617188 184.097656 C 100.90625 185.878906 103.78125 186.941406 106.90625 186.941406 C 114.378906 186.941406 120.433594 180.886719 120.433594 173.417969 C 120.433594 170.292969 119.371094 167.414062 117.589844 165.125 " fill-opacity="1" fill-rule="nonzero"/><path fill="#67dcff" d="M 92.152344 188.167969 C 88.214844 184.226562 86.042969 178.988281 86.042969 173.417969 C 86.042969 167.84375 88.214844 162.601562 92.15625 158.664062 C 92.261719 158.554688 92.375 158.453125 92.480469 158.347656 L 92.480469 145.46875 C 92.480469 138 86.425781 131.941406 78.957031 131.941406 C 71.488281 131.941406 65.433594 138 65.433594 145.46875 L 65.433594 159.890625 L 51.011719 159.890625 C 43.539062 159.890625 37.484375 165.945312 37.484375 173.417969 C 37.484375 180.886719 43.539062 186.941406 51.011719 186.941406 L 65.433594 186.941406 L 65.433594 201.367188 C 65.433594 208.835938 71.488281 214.890625 78.957031 214.890625 C 86.425781 214.890625 92.480469 208.835938 92.480469 201.367188 L 92.480469 188.484375 C 92.375 188.378906 92.261719 188.277344 92.152344 188.167969 " fill-opacity="1" fill-rule="nonzero"/><path fill="#ffffff" d="M 70.335938 142.625 C 71.234375 139.902344 73.390625 137.746094 76.117188 136.847656 C 76.550781 136.703125 76.84375 136.300781 76.84375 135.84375 L 76.84375 135.839844 C 76.84375 135.121094 76.140625 134.605469 75.457031 134.832031 C 72.09375 135.941406 69.433594 138.601562 68.324219 141.964844 C 68.097656 142.648438 68.613281 143.355469 69.332031 143.355469 C 69.789062 143.355469 70.191406 143.058594 70.335938 142.625 " fill-opacity="1" fill-rule="nonzero"/><path fill="#ffffff" d="M 48.171875 181.929688 C 45.445312 181.027344 43.289062 178.871094 42.386719 176.144531 C 42.246094 175.710938 41.84375 175.417969 41.386719 175.417969 L 41.382812 175.417969 C 40.664062 175.417969 40.148438 176.125 40.375 176.804688 C 41.484375 180.167969 44.144531 182.828125 47.507812 183.9375 C 48.191406 184.164062 48.898438 183.648438 48.898438 182.929688 C 48.898438 182.472656 48.601562 182.070312 48.171875 181.929688 " fill-opacity="1" fill-rule="nonzero"/><g clip-path="url(#398c966e6e)"><path fill="#38b6ff" d="M 141.667969 204.253906 C 136.183594 204.253906 131.726562 208.707031 131.726562 214.191406 C 131.726562 219.679688 136.183594 224.132812 141.667969 224.132812 Z M 141.667969 204.253906 " fill-opacity="1" fill-rule="evenodd"/></g><g clip-path="url(#3326ca9417)"><g clip-path="url(#e5738219b5)"><path fill="url(#d49423f143)" d="M 132.199219 204.722656 L 141.636719 204.722656 L 141.636719 223.660156 L 132.199219 223.660156 Z M 132.199219 204.722656 " fill-rule="nonzero"/></g></g><g clip-path="url(#b3f771ca6d)"><path fill="#38b6ff" d="M 141.667969 207.089844 C 137.746094 207.089844 134.5625 210.273438 134.5625 214.191406 C 134.5625 218.113281 137.746094 221.296875 141.667969 221.296875 Z M 141.667969 207.089844 " fill-opacity="1" fill-rule="evenodd"/></g><g clip-path="url(#83501ed8c1)"><path fill="#38b6ff" d="M 141.667969 210.359375 C 139.550781 210.359375 137.832031 212.078125 137.832031 214.191406 C 137.832031 216.308594 139.550781 218.027344 141.667969 218.027344 Z M 141.667969 210.359375 " fill-opacity="1" fill-rule="evenodd"/></g><g clip-path="url(#7ecb3f5827)"><path fill="#38b6ff" d="M 141.667969 204.253906 C 147.15625 204.253906 151.609375 208.707031 151.609375 214.191406 C 151.609375 219.679688 147.15625 224.132812 141.667969 224.132812 Z M 141.667969 204.253906 " fill-opacity="1" fill-rule="evenodd"/></g><g clip-path="url(#12221ff08a)"><g clip-path="url(#bee2efc7bd)"><path fill="url(#8ef32b2ba3)" d="M 151.136719 204.722656 L 141.667969 204.722656 L 141.667969 223.660156 L 151.136719 223.660156 Z M 151.136719 204.722656 " fill-rule="nonzero"/></g></g><g clip-path="url(#fe22413cbd)"><path fill="#38b6ff" d="M 141.667969 207.089844 C 145.589844 207.089844 148.773438 210.273438 148.773438 214.191406 C 148.773438 218.113281 145.589844 221.296875 141.667969 221.296875 Z M 141.667969 207.089844 " fill-opacity="1" fill-rule="evenodd"/></g><g clip-path="url(#45677ecfe7)"><path fill="#38b6ff" d="M 141.667969 210.359375 C 143.785156 210.359375 145.503906 212.078125 145.503906 214.191406 C 145.503906 216.308594 143.785156 218.027344 141.667969 218.027344 Z M 141.667969 210.359375 " fill-opacity="1" fill-rule="evenodd"/></g><g fill="#38b6ff" fill-opacity="1"><g transform="translate(157.166663, 175.313752)"><g><path d="M 28.140625 -23.46875 C 28.140625 -21.644531 27.707031 -19.9375 26.84375 -18.34375 C 25.988281 -16.757812 24.644531 -15.476562 22.8125 -14.5 C 20.976562 -13.53125 18.664062 -13.046875 15.875 -13.046875 L 10.171875 -13.046875 L 10.171875 0 L 3.359375 0 L 3.359375 -33.984375 L 15.875 -33.984375 C 18.5 -33.984375 20.734375 -33.523438 22.578125 -32.609375 C 24.429688 -31.703125 25.820312 -30.453125 26.75 -28.859375 C 27.675781 -27.273438 28.140625 -25.476562 28.140625 -23.46875 Z M 15.578125 -18.546875 C 17.460938 -18.546875 18.859375 -18.972656 19.765625 -19.828125 C 20.671875 -20.691406 21.125 -21.90625 21.125 -23.46875 C 21.125 -26.78125 19.273438 -28.4375 15.578125 -28.4375 L 10.171875 -28.4375 L 10.171875 -18.546875 Z M 15.578125 -18.546875 "/></g></g></g><g fill="#38b6ff" fill-opacity="1"><g transform="translate(189.04938, 175.313752)"><g><path d="M 18.546875 -27.359375 C 20.597656 -27.359375 22.414062 -26.910156 24 -26.015625 C 25.59375 -25.128906 26.832031 -23.816406 27.71875 -22.078125 C 28.613281 -20.335938 29.0625 -18.253906 29.0625 -15.828125 L 29.0625 0 L 22.25 0 L 22.25 -14.890625 C 22.25 -17.035156 21.710938 -18.679688 20.640625 -19.828125 C 19.566406 -20.984375 18.109375 -21.5625 16.265625 -21.5625 C 14.378906 -21.5625 12.890625 -20.984375 11.796875 -19.828125 C 10.710938 -18.679688 10.171875 -17.035156 10.171875 -14.890625 L 10.171875 0 L 3.359375 0 L 3.359375 -36.03125 L 10.171875 -36.03125 L 10.171875 -23.609375 C 11.046875 -24.773438 12.210938 -25.691406 13.671875 -26.359375 C 15.140625 -27.023438 16.765625 -27.359375 18.546875 -27.359375 Z M 18.546875 -27.359375 "/></g></g></g><g fill="#38b6ff" fill-opacity="1"><g transform="translate(223.511867, 175.313752)"><g><path d="M 1.609375 -13.578125 C 1.609375 -16.304688 2.148438 -18.722656 3.234375 -20.828125 C 4.328125 -22.941406 5.804688 -24.566406 7.671875 -25.703125 C 9.535156 -26.835938 11.617188 -27.40625 13.921875 -27.40625 C 15.929688 -27.40625 17.691406 -27 19.203125 -26.1875 C 20.710938 -25.382812 21.921875 -24.363281 22.828125 -23.125 L 22.828125 -26.96875 L 29.703125 -26.96875 L 29.703125 0 L 22.828125 0 L 22.828125 -3.9375 C 21.953125 -2.675781 20.742188 -1.628906 19.203125 -0.796875 C 17.660156 0.0234375 15.882812 0.4375 13.875 0.4375 C 11.601562 0.4375 9.535156 -0.144531 7.671875 -1.3125 C 5.804688 -2.476562 4.328125 -4.125 3.234375 -6.25 C 2.148438 -8.382812 1.609375 -10.828125 1.609375 -13.578125 Z M 22.828125 -13.484375 C 22.828125 -15.140625 22.503906 -16.5625 21.859375 -17.75 C 21.210938 -18.9375 20.335938 -19.84375 19.234375 -20.46875 C 18.128906 -21.101562 16.941406 -21.421875 15.671875 -21.421875 C 14.410156 -21.421875 13.242188 -21.113281 12.171875 -20.5 C 11.097656 -19.882812 10.226562 -18.984375 9.5625 -17.796875 C 8.894531 -16.609375 8.5625 -15.203125 8.5625 -13.578125 C 8.5625 -11.960938 8.894531 -10.546875 9.5625 -9.328125 C 10.226562 -8.109375 11.101562 -7.171875 12.1875 -6.515625 C 13.28125 -5.867188 14.441406 -5.546875 15.671875 -5.546875 C 16.941406 -5.546875 18.128906 -5.863281 19.234375 -6.5 C 20.335938 -7.132812 21.210938 -8.039062 21.859375 -9.21875 C 22.503906 -10.40625 22.828125 -11.828125 22.828125 -13.484375 Z M 22.828125 -13.484375 "/></g></g></g><g fill="#38b6ff" fill-opacity="1"><g transform="translate(258.801829, 175.313752)"><g><path d="M 10.171875 -22.78125 C 11.046875 -24.207031 12.1875 -25.328125 13.59375 -26.140625 C 15.007812 -26.953125 16.628906 -27.359375 18.453125 -27.359375 L 18.453125 -20.203125 L 16.65625 -20.203125 C 14.507812 -20.203125 12.890625 -19.695312 11.796875 -18.6875 C 10.710938 -17.6875 10.171875 -15.9375 10.171875 -13.4375 L 10.171875 0 L 3.359375 0 L 3.359375 -26.96875 L 10.171875 -26.96875 Z M 10.171875 -22.78125 "/></g></g></g><g fill="#38b6ff" fill-opacity="1"><g transform="translate(280.754874, 175.313752)"><g><path d="M 36.859375 -27.359375 C 40.171875 -27.359375 42.835938 -26.34375 44.859375 -24.3125 C 46.890625 -22.289062 47.90625 -19.460938 47.90625 -15.828125 L 47.90625 0 L 41.09375 0 L 41.09375 -14.890625 C 41.09375 -17.003906 40.554688 -18.617188 39.484375 -19.734375 C 38.410156 -20.859375 36.953125 -21.421875 35.109375 -21.421875 C 33.253906 -21.421875 31.78125 -20.859375 30.6875 -19.734375 C 29.601562 -18.617188 29.0625 -17.003906 29.0625 -14.890625 L 29.0625 0 L 22.25 0 L 22.25 -14.890625 C 22.25 -17.003906 21.710938 -18.617188 20.640625 -19.734375 C 19.566406 -20.859375 18.109375 -21.421875 16.265625 -21.421875 C 14.378906 -21.421875 12.890625 -20.859375 11.796875 -19.734375 C 10.710938 -18.617188 10.171875 -17.003906 10.171875 -14.890625 L 10.171875 0 L 3.359375 0 L 3.359375 -26.96875 L 10.171875 -26.96875 L 10.171875 -23.703125 C 11.046875 -24.847656 12.171875 -25.742188 13.546875 -26.390625 C 14.929688 -27.035156 16.453125 -27.359375 18.109375 -27.359375 C 20.222656 -27.359375 22.109375 -26.910156 23.765625 -26.015625 C 25.421875 -25.128906 26.703125 -23.859375 27.609375 -22.203125 C 28.484375 -23.753906 29.753906 -25 31.421875 -25.9375 C 33.097656 -26.882812 34.910156 -27.359375 36.859375 -27.359375 Z M 36.859375 -27.359375 "/></g></g></g><g fill="#38b6ff" fill-opacity="1"><g transform="translate(334.054518, 175.313752)"><g><path d="M 1.609375 -13.578125 C 1.609375 -16.304688 2.148438 -18.722656 3.234375 -20.828125 C 4.328125 -22.941406 5.804688 -24.566406 7.671875 -25.703125 C 9.535156 -26.835938 11.617188 -27.40625 13.921875 -27.40625 C 15.929688 -27.40625 17.691406 -27 19.203125 -26.1875 C 20.710938 -25.382812 21.921875 -24.363281 22.828125 -23.125 L 22.828125 -26.96875 L 29.703125 -26.96875 L 29.703125 0 L 22.828125 0 L 22.828125 -3.9375 C 21.953125 -2.675781 20.742188 -1.628906 19.203125 -0.796875 C 17.660156 0.0234375 15.882812 0.4375 13.875 0.4375 C 11.601562 0.4375 9.535156 -0.144531 7.671875 -1.3125 C 5.804688 -2.476562 4.328125 -4.125 3.234375 -6.25 C 2.148438 -8.382812 1.609375 -10.828125 1.609375 -13.578125 Z M 22.828125 -13.484375 C 22.828125 -15.140625 22.503906 -16.5625 21.859375 -17.75 C 21.210938 -18.9375 20.335938 -19.84375 19.234375 -20.46875 C 18.128906 -21.101562 16.941406 -21.421875 15.671875 -21.421875 C 14.410156 -21.421875 13.242188 -21.113281 12.171875 -20.5 C 11.097656 -19.882812 10.226562 -18.984375 9.5625 -17.796875 C 8.894531 -16.609375 8.5625 -15.203125 8.5625 -13.578125 C 8.5625 -11.960938 8.894531 -10.546875 9.5625 -9.328125 C 10.226562 -8.109375 11.101562 -7.171875 12.1875 -6.515625 C 13.28125 -5.867188 14.441406 -5.546875 15.671875 -5.546875 C 16.941406 -5.546875 18.128906 -5.863281 19.234375 -6.5 C 20.335938 -7.132812 21.210938 -8.039062 21.859375 -9.21875 C 22.503906 -10.40625 22.828125 -11.828125 22.828125 -13.484375 Z M 22.828125 -13.484375 "/></g></g></g><g fill="#38b6ff" fill-opacity="1"><g transform="translate(155.731127, 210.572811)"><g><path d="M 9.078125 0.21875 C 7.679688 0.21875 6.425781 -0.03125 5.3125 -0.53125 C 4.207031 -1.03125 3.335938 -1.722656 2.703125 -2.609375 C 2.078125 -3.492188 1.753906 -4.515625 1.734375 -5.671875 L 4.6875 -5.671875 C 4.789062 -4.671875 5.203125 -3.828125 5.921875 -3.140625 C 6.640625 -2.460938 7.691406 -2.125 9.078125 -2.125 C 10.398438 -2.125 11.441406 -2.453125 12.203125 -3.109375 C 12.960938 -3.773438 13.34375 -4.628906 13.34375 -5.671875 C 13.34375 -6.484375 13.117188 -7.140625 12.671875 -7.640625 C 12.222656 -8.148438 11.664062 -8.535156 11 -8.796875 C 10.332031 -9.066406 9.425781 -9.351562 8.28125 -9.65625 C 6.882812 -10.019531 5.765625 -10.382812 4.921875 -10.75 C 4.078125 -11.113281 3.351562 -11.6875 2.75 -12.46875 C 2.15625 -13.257812 1.859375 -14.3125 1.859375 -15.625 C 1.859375 -16.78125 2.148438 -17.804688 2.734375 -18.703125 C 3.328125 -19.597656 4.15625 -20.289062 5.21875 -20.78125 C 6.289062 -21.269531 7.515625 -21.515625 8.890625 -21.515625 C 10.878906 -21.515625 12.507812 -21.015625 13.78125 -20.015625 C 15.050781 -19.023438 15.769531 -17.707031 15.9375 -16.0625 L 12.890625 -16.0625 C 12.785156 -16.875 12.359375 -17.585938 11.609375 -18.203125 C 10.859375 -18.828125 9.863281 -19.140625 8.625 -19.140625 C 7.46875 -19.140625 6.519531 -18.835938 5.78125 -18.234375 C 5.050781 -17.640625 4.6875 -16.800781 4.6875 -15.71875 C 4.6875 -14.945312 4.90625 -14.316406 5.34375 -13.828125 C 5.78125 -13.335938 6.316406 -12.96875 6.953125 -12.71875 C 7.597656 -12.46875 8.5 -12.179688 9.65625 -11.859375 C 11.0625 -11.460938 12.1875 -11.078125 13.03125 -10.703125 C 13.882812 -10.328125 14.613281 -9.75 15.21875 -8.96875 C 15.832031 -8.1875 16.140625 -7.125 16.140625 -5.78125 C 16.140625 -4.75 15.863281 -3.773438 15.3125 -2.859375 C 14.769531 -1.953125 13.957031 -1.210938 12.875 -0.640625 C 11.800781 -0.0664062 10.535156 0.21875 9.078125 0.21875 Z M 9.078125 0.21875 "/></g></g></g><g fill="#38b6ff" fill-opacity="1"><g transform="translate(175.041916, 210.572811)"><g><path d="M 16.734375 -16.703125 L 6.671875 7.859375 L 3.8125 7.859375 L 7.09375 -0.1875 L 0.359375 -16.703125 L 3.4375 -16.703125 L 8.6875 -3.171875 L 13.859375 -16.703125 Z M 16.734375 -16.703125 "/></g></g></g><g fill="#38b6ff" fill-opacity="1"><g transform="translate(193.621728, 210.572811)"><g><path d="M 10.484375 -17 C 12.515625 -17 14.160156 -16.382812 15.421875 -15.15625 C 16.679688 -13.925781 17.3125 -12.15625 17.3125 -9.84375 L 17.3125 0 L 14.5625 0 L 14.5625 -9.4375 C 14.5625 -11.101562 14.144531 -12.378906 13.3125 -13.265625 C 12.476562 -14.148438 11.34375 -14.59375 9.90625 -14.59375 C 8.4375 -14.59375 7.269531 -14.132812 6.40625 -13.21875 C 5.550781 -12.3125 5.125 -10.984375 5.125 -9.234375 L 5.125 0 L 2.34375 0 L 2.34375 -16.703125 L 5.125 -16.703125 L 5.125 -14.3125 C 5.664062 -15.164062 6.410156 -15.828125 7.359375 -16.296875 C 8.304688 -16.765625 9.347656 -17 10.484375 -17 Z M 10.484375 -17 "/></g></g></g><g fill="#38b6ff" fill-opacity="1"><g transform="translate(214.546766, 210.572811)"><g><path d="M 1.3125 -8.375 C 1.3125 -10.101562 1.65625 -11.613281 2.34375 -12.90625 C 3.03125 -14.195312 3.988281 -15.195312 5.21875 -15.90625 C 6.445312 -16.613281 7.851562 -16.96875 9.4375 -16.96875 C 11.488281 -16.96875 13.179688 -16.46875 14.515625 -15.46875 C 15.847656 -14.476562 16.726562 -13.097656 17.15625 -11.328125 L 14.171875 -11.328125 C 13.878906 -12.347656 13.320312 -13.148438 12.5 -13.734375 C 11.675781 -14.328125 10.65625 -14.625 9.4375 -14.625 C 7.851562 -14.625 6.570312 -14.078125 5.59375 -12.984375 C 4.625 -11.898438 4.140625 -10.363281 4.140625 -8.375 C 4.140625 -6.363281 4.625 -4.8125 5.59375 -3.71875 C 6.570312 -2.625 7.851562 -2.078125 9.4375 -2.078125 C 10.65625 -2.078125 11.671875 -2.359375 12.484375 -2.921875 C 13.296875 -3.492188 13.859375 -4.304688 14.171875 -5.359375 L 17.15625 -5.359375 C 16.707031 -3.648438 15.8125 -2.28125 14.46875 -1.25 C 13.132812 -0.226562 11.457031 0.28125 9.4375 0.28125 C 7.851562 0.28125 6.445312 -0.0703125 5.21875 -0.78125 C 3.988281 -1.5 3.03125 -2.507812 2.34375 -3.8125 C 1.65625 -5.113281 1.3125 -6.632812 1.3125 -8.375 Z M 1.3125 -8.375 "/></g></g></g></svg>