<svg xmlns="http://www.w3.org/2000/svg" xmlns:xlink="http://www.w3.org/1999/xlink" width="500" zoomAndPan="magnify" viewBox="0 0 375 374.999991" height="500" preserveAspectRatio="xMidYMid meet" version="1.0"><defs><clipPath id="89aeb19dc7"><path d="M 4.738281 54 L 28 54 L 28 78 L 4.738281 78 Z M 4.738281 54 " clip-rule="nonzero"/></clipPath><clipPath id="f0b0b3aaa7"><path d="M 131.863281 200.5 L 141.589844 200.5 L 141.589844 220.085938 L 131.863281 220.085938 Z M 131.863281 200.5 " clip-rule="nonzero"/></clipPath><clipPath id="17c3dcd332"><path d="M 132 200.5 L 141.589844 200.5 L 141.589844 220 L 132 220 Z M 132 200.5 " clip-rule="nonzero"/></clipPath><clipPath id="afee78d2dc"><path d="M 141.621094 200.964844 C 136.472656 200.964844 132.292969 205.144531 132.292969 210.292969 C 132.292969 215.441406 136.472656 219.617188 141.621094 219.617188 L 141.621094 219.285156 C 136.65625 219.285156 132.628906 215.253906 132.628906 210.292969 C 132.628906 205.328125 136.65625 201.300781 141.621094 201.300781 Z M 141.621094 200.964844 " clip-rule="evenodd"/></clipPath><linearGradient x1="-0.000000384078" gradientTransform="matrix(0, 19.117207, 19.117207, 0, 141.620408, 200.966135)" y1="0" x2="0.975706" gradientUnits="userSpaceOnUse" y2="0" id="db0028a925"><stop stop-opacity="1" stop-color="rgb(59.599304%, 39.99939%, 15.299988%)" offset="0"/><stop stop-opacity="1" stop-color="rgb(59.770203%, 40.136719%, 15.306091%)" offset="0.015625"/><stop stop-opacity="1" stop-color="rgb(60.112%, 40.411377%, 15.316772%)" offset="0.03125"/><stop stop-opacity="1" stop-color="rgb(60.452271%, 40.684509%, 15.328979%)" offset="0.046875"/><stop stop-opacity="1" stop-color="rgb(60.794067%, 40.959167%, 15.341187%)" offset="0.0625"/><stop stop-opacity="1" stop-color="rgb(61.135864%, 41.233826%, 15.353394%)" offset="0.078125"/><stop stop-opacity="1" stop-color="rgb(61.477661%, 41.508484%, 15.365601%)" offset="0.09375"/><stop stop-opacity="1" stop-color="rgb(61.819458%, 41.783142%, 15.377808%)" offset="0.109375"/><stop stop-opacity="1" stop-color="rgb(62.159729%, 42.0578%, 15.390015%)" offset="0.125"/><stop stop-opacity="1" stop-color="rgb(62.501526%, 42.330933%, 15.402222%)" offset="0.140625"/><stop stop-opacity="1" stop-color="rgb(62.843323%, 42.605591%, 15.414429%)" offset="0.15625"/><stop stop-opacity="1" stop-color="rgb(63.18512%, 42.880249%, 15.426636%)" offset="0.171875"/><stop stop-opacity="1" stop-color="rgb(63.526917%, 43.154907%, 15.438843%)" offset="0.1875"/><stop stop-opacity="1" stop-color="rgb(63.867188%, 43.429565%, 15.45105%)" offset="0.203125"/><stop stop-opacity="1" stop-color="rgb(64.208984%, 43.704224%, 15.463257%)" offset="0.21875"/><stop stop-opacity="1" stop-color="rgb(64.550781%, 43.978882%, 15.475464%)" offset="0.234375"/><stop stop-opacity="1" stop-color="rgb(64.892578%, 44.252014%, 15.487671%)" offset="0.25"/><stop stop-opacity="1" stop-color="rgb(65.234375%, 44.526672%, 15.499878%)" offset="0.265625"/><stop stop-opacity="1" stop-color="rgb(65.574646%, 44.801331%, 15.512085%)" offset="0.28125"/><stop stop-opacity="1" stop-color="rgb(65.916443%, 45.075989%, 15.524292%)" offset="0.296875"/><stop stop-opacity="1" stop-color="rgb(66.25824%, 45.350647%, 15.536499%)" offset="0.3125"/><stop stop-opacity="1" stop-color="rgb(66.600037%, 45.625305%, 15.548706%)" offset="0.328125"/><stop stop-opacity="1" stop-color="rgb(66.941833%, 45.898438%, 15.560913%)" offset="0.34375"/><stop stop-opacity="1" stop-color="rgb(67.282104%, 46.173096%, 15.57312%)" offset="0.359375"/><stop stop-opacity="1" stop-color="rgb(67.623901%, 46.447754%, 15.585327%)" offset="0.375"/><stop stop-opacity="1" stop-color="rgb(67.965698%, 46.722412%, 15.597534%)" offset="0.390625"/><stop stop-opacity="1" stop-color="rgb(68.307495%, 46.99707%, 15.609741%)" offset="0.40625"/><stop stop-opacity="1" stop-color="rgb(68.649292%, 47.271729%, 15.621948%)" offset="0.421875"/><stop stop-opacity="1" stop-color="rgb(68.989563%, 47.544861%, 15.634155%)" offset="0.4375"/><stop stop-opacity="1" stop-color="rgb(69.33136%, 47.819519%, 15.646362%)" offset="0.453125"/><stop stop-opacity="1" stop-color="rgb(69.673157%, 48.094177%, 15.658569%)" offset="0.46875"/><stop stop-opacity="1" stop-color="rgb(70.014954%, 48.368835%, 15.670776%)" offset="0.484375"/><stop stop-opacity="1" stop-color="rgb(70.35675%, 48.643494%, 15.682983%)" offset="0.5"/><stop stop-opacity="1" stop-color="rgb(70.697021%, 48.918152%, 15.69519%)" offset="0.515625"/><stop stop-opacity="1" stop-color="rgb(71.038818%, 49.19281%, 15.707397%)" offset="0.53125"/><stop stop-opacity="1" stop-color="rgb(71.380615%, 49.465942%, 15.719604%)" offset="0.546875"/><stop stop-opacity="1" stop-color="rgb(71.722412%, 49.740601%, 15.731812%)" offset="0.5625"/><stop stop-opacity="1" stop-color="rgb(72.064209%, 50.015259%, 15.744019%)" offset="0.578125"/><stop stop-opacity="1" stop-color="rgb(72.40448%, 50.289917%, 15.756226%)" offset="0.59375"/><stop stop-opacity="1" stop-color="rgb(72.746277%, 50.564575%, 15.768433%)" offset="0.609375"/><stop stop-opacity="1" stop-color="rgb(73.088074%, 50.839233%, 15.78064%)" offset="0.625"/><stop stop-opacity="1" stop-color="rgb(73.429871%, 51.112366%, 15.792847%)" offset="0.640625"/><stop stop-opacity="1" stop-color="rgb(73.771667%, 51.387024%, 15.805054%)" offset="0.65625"/><stop stop-opacity="1" stop-color="rgb(74.113464%, 51.661682%, 15.817261%)" offset="0.671875"/><stop stop-opacity="1" stop-color="rgb(74.453735%, 51.93634%, 15.829468%)" offset="0.6875"/><stop stop-opacity="1" stop-color="rgb(74.795532%, 52.210999%, 15.841675%)" offset="0.703125"/><stop stop-opacity="1" stop-color="rgb(75.137329%, 52.485657%, 15.853882%)" offset="0.71875"/><stop stop-opacity="1" stop-color="rgb(75.479126%, 52.758789%, 15.866089%)" offset="0.734375"/><stop stop-opacity="1" stop-color="rgb(75.820923%, 53.033447%, 15.878296%)" offset="0.75"/><stop stop-opacity="1" stop-color="rgb(76.161194%, 53.308105%, 15.890503%)" offset="0.765625"/><stop stop-opacity="1" stop-color="rgb(76.502991%, 53.582764%, 15.90271%)" offset="0.78125"/><stop stop-opacity="1" stop-color="rgb(76.844788%, 53.857422%, 15.914917%)" offset="0.796875"/><stop stop-opacity="1" stop-color="rgb(77.186584%, 54.13208%, 15.927124%)" offset="0.8125"/><stop stop-opacity="1" stop-color="rgb(77.528381%, 54.406738%, 15.939331%)" offset="0.828125"/><stop stop-opacity="1" stop-color="rgb(77.868652%, 54.679871%, 15.951538%)" offset="0.84375"/><stop stop-opacity="1" stop-color="rgb(78.210449%, 54.954529%, 15.963745%)" offset="0.859375"/><stop stop-opacity="1" stop-color="rgb(78.552246%, 55.229187%, 15.975952%)" offset="0.875"/><stop stop-opacity="1" stop-color="rgb(78.894043%, 55.503845%, 15.988159%)" offset="0.890625"/><stop stop-opacity="1" stop-color="rgb(79.23584%, 55.778503%, 16.000366%)" offset="0.90625"/><stop stop-opacity="1" stop-color="rgb(79.576111%, 56.053162%, 16.012573%)" offset="0.921875"/><stop stop-opacity="1" stop-color="rgb(79.917908%, 56.326294%, 16.02478%)" offset="0.9375"/><stop stop-opacity="1" stop-color="rgb(80.259705%, 56.600952%, 16.036987%)" offset="0.953125"/><stop stop-opacity="1" stop-color="rgb(80.601501%, 56.87561%, 16.049194%)" offset="0.96875"/><stop stop-opacity="1" stop-color="rgb(80.943298%, 57.150269%, 16.061401%)" offset="0.984375"/><stop stop-opacity="1" stop-color="rgb(81.283569%, 57.424927%, 16.073608%)" offset="1"/></linearGradient><clipPath id="c2f6fc4f36"><path d="M 134 203 L 141.589844 203 L 141.589844 218 L 134 218 Z M 134 203 " clip-rule="nonzero"/></clipPath><clipPath id="dac99cb8b9"><path d="M 137 206 L 141.589844 206 L 141.589844 215 L 137 215 Z M 137 206 " clip-rule="nonzero"/></clipPath><clipPath id="71d218076f"><path d="M 141.621094 200.5 L 151.378906 200.5 L 151.378906 220.085938 L 141.621094 220.085938 Z M 141.621094 200.5 " clip-rule="nonzero"/></clipPath><clipPath id="2793c1b334"><path d="M 141.621094 200.5 L 151 200.5 L 151 220 L 141.621094 220 Z M 141.621094 200.5 " clip-rule="nonzero"/></clipPath><clipPath id="9ee33d7166"><path d="M 141.621094 200.964844 C 146.769531 200.964844 150.949219 205.144531 150.949219 210.292969 C 150.949219 215.441406 146.769531 219.617188 141.621094 219.617188 L 141.621094 219.285156 C 146.582031 219.285156 150.613281 215.253906 150.613281 210.292969 C 150.613281 205.328125 146.582031 201.300781 141.621094 201.300781 Z M 141.621094 200.964844 " clip-rule="evenodd"/></clipPath><linearGradient x1="-0.000000384078" gradientTransform="matrix(0, 19.117207, -19.117207, 0, 141.62111, 200.966135)" y1="0" x2="0.975706" gradientUnits="userSpaceOnUse" y2="0" id="6a7a49bbe9"><stop stop-opacity="1" stop-color="rgb(59.599304%, 39.99939%, 15.299988%)" offset="0"/><stop stop-opacity="1" stop-color="rgb(59.770203%, 40.136719%, 15.306091%)" offset="0.015625"/><stop stop-opacity="1" stop-color="rgb(60.112%, 40.411377%, 15.316772%)" offset="0.03125"/><stop stop-opacity="1" stop-color="rgb(60.452271%, 40.684509%, 15.328979%)" offset="0.046875"/><stop stop-opacity="1" stop-color="rgb(60.794067%, 40.959167%, 15.341187%)" offset="0.0625"/><stop stop-opacity="1" stop-color="rgb(61.135864%, 41.233826%, 15.353394%)" offset="0.078125"/><stop stop-opacity="1" stop-color="rgb(61.477661%, 41.508484%, 15.365601%)" offset="0.09375"/><stop stop-opacity="1" stop-color="rgb(61.819458%, 41.783142%, 15.377808%)" offset="0.109375"/><stop stop-opacity="1" stop-color="rgb(62.159729%, 42.0578%, 15.390015%)" offset="0.125"/><stop stop-opacity="1" stop-color="rgb(62.501526%, 42.330933%, 15.402222%)" offset="0.140625"/><stop stop-opacity="1" stop-color="rgb(62.843323%, 42.605591%, 15.414429%)" offset="0.15625"/><stop stop-opacity="1" stop-color="rgb(63.18512%, 42.880249%, 15.426636%)" offset="0.171875"/><stop stop-opacity="1" stop-color="rgb(63.526917%, 43.154907%, 15.438843%)" offset="0.1875"/><stop stop-opacity="1" stop-color="rgb(63.867188%, 43.429565%, 15.45105%)" offset="0.203125"/><stop stop-opacity="1" stop-color="rgb(64.208984%, 43.704224%, 15.463257%)" offset="0.21875"/><stop stop-opacity="1" stop-color="rgb(64.550781%, 43.978882%, 15.475464%)" offset="0.234375"/><stop stop-opacity="1" stop-color="rgb(64.892578%, 44.252014%, 15.487671%)" offset="0.25"/><stop stop-opacity="1" stop-color="rgb(65.234375%, 44.526672%, 15.499878%)" offset="0.265625"/><stop stop-opacity="1" stop-color="rgb(65.574646%, 44.801331%, 15.512085%)" offset="0.28125"/><stop stop-opacity="1" stop-color="rgb(65.916443%, 45.075989%, 15.524292%)" offset="0.296875"/><stop stop-opacity="1" stop-color="rgb(66.25824%, 45.350647%, 15.536499%)" offset="0.3125"/><stop stop-opacity="1" stop-color="rgb(66.600037%, 45.625305%, 15.548706%)" offset="0.328125"/><stop stop-opacity="1" stop-color="rgb(66.941833%, 45.898438%, 15.560913%)" offset="0.34375"/><stop stop-opacity="1" stop-color="rgb(67.282104%, 46.173096%, 15.57312%)" offset="0.359375"/><stop stop-opacity="1" stop-color="rgb(67.623901%, 46.447754%, 15.585327%)" offset="0.375"/><stop stop-opacity="1" stop-color="rgb(67.965698%, 46.722412%, 15.597534%)" offset="0.390625"/><stop stop-opacity="1" stop-color="rgb(68.307495%, 46.99707%, 15.609741%)" offset="0.40625"/><stop stop-opacity="1" stop-color="rgb(68.649292%, 47.271729%, 15.621948%)" offset="0.421875"/><stop stop-opacity="1" stop-color="rgb(68.989563%, 47.544861%, 15.634155%)" offset="0.4375"/><stop stop-opacity="1" stop-color="rgb(69.33136%, 47.819519%, 15.646362%)" offset="0.453125"/><stop stop-opacity="1" stop-color="rgb(69.673157%, 48.094177%, 15.658569%)" offset="0.46875"/><stop stop-opacity="1" stop-color="rgb(70.014954%, 48.368835%, 15.670776%)" offset="0.484375"/><stop stop-opacity="1" stop-color="rgb(70.35675%, 48.643494%, 15.682983%)" offset="0.5"/><stop stop-opacity="1" stop-color="rgb(70.697021%, 48.918152%, 15.69519%)" offset="0.515625"/><stop stop-opacity="1" stop-color="rgb(71.038818%, 49.19281%, 15.707397%)" offset="0.53125"/><stop stop-opacity="1" stop-color="rgb(71.380615%, 49.465942%, 15.719604%)" offset="0.546875"/><stop stop-opacity="1" stop-color="rgb(71.722412%, 49.740601%, 15.731812%)" offset="0.5625"/><stop stop-opacity="1" stop-color="rgb(72.064209%, 50.015259%, 15.744019%)" offset="0.578125"/><stop stop-opacity="1" stop-color="rgb(72.40448%, 50.289917%, 15.756226%)" offset="0.59375"/><stop stop-opacity="1" stop-color="rgb(72.746277%, 50.564575%, 15.768433%)" offset="0.609375"/><stop stop-opacity="1" stop-color="rgb(73.088074%, 50.839233%, 15.78064%)" offset="0.625"/><stop stop-opacity="1" stop-color="rgb(73.429871%, 51.112366%, 15.792847%)" offset="0.640625"/><stop stop-opacity="1" stop-color="rgb(73.771667%, 51.387024%, 15.805054%)" offset="0.65625"/><stop stop-opacity="1" stop-color="rgb(74.113464%, 51.661682%, 15.817261%)" offset="0.671875"/><stop stop-opacity="1" stop-color="rgb(74.453735%, 51.93634%, 15.829468%)" offset="0.6875"/><stop stop-opacity="1" stop-color="rgb(74.795532%, 52.210999%, 15.841675%)" offset="0.703125"/><stop stop-opacity="1" stop-color="rgb(75.137329%, 52.485657%, 15.853882%)" offset="0.71875"/><stop stop-opacity="1" stop-color="rgb(75.479126%, 52.758789%, 15.866089%)" offset="0.734375"/><stop stop-opacity="1" stop-color="rgb(75.820923%, 53.033447%, 15.878296%)" offset="0.75"/><stop stop-opacity="1" stop-color="rgb(76.161194%, 53.308105%, 15.890503%)" offset="0.765625"/><stop stop-opacity="1" stop-color="rgb(76.502991%, 53.582764%, 15.90271%)" offset="0.78125"/><stop stop-opacity="1" stop-color="rgb(76.844788%, 53.857422%, 15.914917%)" offset="0.796875"/><stop stop-opacity="1" stop-color="rgb(77.186584%, 54.13208%, 15.927124%)" offset="0.8125"/><stop stop-opacity="1" stop-color="rgb(77.528381%, 54.406738%, 15.939331%)" offset="0.828125"/><stop stop-opacity="1" stop-color="rgb(77.868652%, 54.679871%, 15.951538%)" offset="0.84375"/><stop stop-opacity="1" stop-color="rgb(78.210449%, 54.954529%, 15.963745%)" offset="0.859375"/><stop stop-opacity="1" stop-color="rgb(78.552246%, 55.229187%, 15.975952%)" offset="0.875"/><stop stop-opacity="1" stop-color="rgb(78.894043%, 55.503845%, 15.988159%)" offset="0.890625"/><stop stop-opacity="1" stop-color="rgb(79.23584%, 55.778503%, 16.000366%)" offset="0.90625"/><stop stop-opacity="1" stop-color="rgb(79.576111%, 56.053162%, 16.012573%)" offset="0.921875"/><stop stop-opacity="1" stop-color="rgb(79.917908%, 56.326294%, 16.02478%)" offset="0.9375"/><stop stop-opacity="1" stop-color="rgb(80.259705%, 56.600952%, 16.036987%)" offset="0.953125"/><stop stop-opacity="1" stop-color="rgb(80.601501%, 56.87561%, 16.049194%)" offset="0.96875"/><stop stop-opacity="1" stop-color="rgb(80.943298%, 57.150269%, 16.061401%)" offset="0.984375"/><stop stop-opacity="1" stop-color="rgb(81.283569%, 57.424927%, 16.073608%)" offset="1"/></linearGradient><clipPath id="21767f2785"><path d="M 141.621094 203 L 149 203 L 149 218 L 141.621094 218 Z M 141.621094 203 " clip-rule="nonzero"/></clipPath><clipPath id="f330cc769e"><path d="M 141.621094 206 L 146 206 L 146 215 L 141.621094 215 Z M 141.621094 206 " clip-rule="nonzero"/></clipPath></defs><path fill="#e1f0fa" d="M 77.519531 29.972656 L 101.425781 82.589844 C 130.644531 19.898438 66.3125 0.00390625 66.3125 0.00390625 L 66.363281 0.148438 C 65.132812 2.175781 32.117188 57.527344 93.53125 85.308594 L 77.519531 29.972656 " fill-opacity="1" fill-rule="nonzero"/><path fill="#e1f0fa" d="M 38.441406 94.210938 L 82.050781 101.964844 C 41.050781 135.566406 14.0625 91.582031 14.0625 91.582031 L 14.179688 91.597656 C 15.449219 90.292969 50.277344 55.269531 82.570312 95.585938 L 38.441406 94.210938 " fill-opacity="1" fill-rule="nonzero"/><path fill="#e1f0fa" d="M 115.597656 105.433594 C 115.597656 111.636719 110.566406 116.667969 104.367188 116.667969 C 98.164062 116.667969 93.136719 111.636719 93.136719 105.433594 C 93.136719 99.230469 98.164062 94.203125 104.367188 94.203125 C 110.566406 94.203125 115.597656 99.230469 115.597656 105.433594 " fill-opacity="1" fill-rule="nonzero"/><g clip-path="url(#89aeb19dc7)"><path fill="#e1f0fa" d="M 16.160156 77.269531 C 9.957031 77.269531 4.925781 72.238281 4.925781 66.035156 C 4.925781 59.832031 9.957031 54.804688 16.160156 54.804688 C 22.363281 54.804688 27.386719 59.832031 27.386719 66.035156 C 27.386719 72.238281 22.363281 77.269531 16.160156 77.269531 " fill-opacity="1" fill-rule="nonzero"/></g><path fill="#e1f0fa" d="M 124.953125 19.878906 C 128.304688 23.230469 128.304688 28.667969 124.953125 32.019531 C 121.597656 35.375 116.164062 35.375 112.808594 32.019531 C 109.457031 28.667969 109.457031 23.230469 112.808594 19.878906 C 116.164062 16.523438 121.597656 16.523438 124.953125 19.878906 " fill-opacity="1" fill-rule="nonzero"/><path fill="#e1f0fa" d="M 51.378906 54.265625 C 52.957031 55.84375 52.957031 58.410156 51.378906 59.988281 C 49.796875 61.566406 47.234375 61.566406 45.65625 59.988281 C 44.078125 58.410156 44.078125 55.84375 45.65625 54.265625 C 47.234375 52.6875 49.796875 52.6875 51.378906 54.265625 " fill-opacity="1" fill-rule="nonzero"/><path fill="#e1f0fa" d="M 27.980469 119.046875 C 30.90625 119.046875 33.277344 121.417969 33.277344 124.34375 C 33.277344 127.273438 30.90625 129.644531 27.980469 129.644531 C 25.054688 129.644531 22.679688 127.273438 22.679688 124.34375 C 22.679688 121.417969 25.054688 119.046875 27.980469 119.046875 " fill-opacity="1" fill-rule="nonzero"/><path fill="#7655fa" d="M 238.8125 338.5 C 238.773438 338.375 238.730469 338.253906 238.691406 338.128906 C 235.71875 328.976562 226.394531 323.332031 216.957031 325.195312 C 170.96875 334.265625 127.417969 318.242188 97.632812 288.453125 C 67.84375 258.664062 51.820312 215.113281 60.890625 169.132812 C 62.753906 159.6875 57.109375 150.367188 47.957031 147.394531 C 47.832031 147.355469 47.710938 147.316406 47.589844 147.273438 C 36.699219 143.738281 25.085938 150.449219 22.859375 161.675781 C 11.074219 221.085938 31.753906 277.367188 70.238281 315.847656 C 108.71875 354.332031 165 375.015625 224.414062 363.230469 C 235.640625 361 242.347656 349.382812 238.8125 338.5 " fill-opacity="1" fill-rule="nonzero"/><path fill="#e1f0fa" d="M 315.246094 70.839844 C 276.765625 32.359375 220.484375 11.675781 161.070312 23.460938 C 149.84375 25.6875 143.136719 37.300781 146.671875 48.191406 C 146.710938 48.3125 146.753906 48.4375 146.792969 48.558594 C 149.765625 57.714844 159.085938 63.359375 168.53125 61.492188 C 214.511719 52.425781 258.0625 68.449219 287.851562 98.234375 C 317.636719 128.019531 333.664062 171.570312 324.589844 217.558594 C 322.730469 227 328.375 236.320312 337.527344 239.292969 C 337.652344 239.335938 337.773438 239.378906 337.898438 239.414062 C 348.78125 242.953125 360.398438 236.242188 362.628906 225.015625 C 374.410156 165.601562 353.726562 109.320312 315.246094 70.839844 " fill-opacity="1" fill-rule="nonzero"/><path fill="#ffffff" d="M 207.492188 281.542969 C 204.910156 289.351562 198.734375 295.527344 190.921875 298.105469 C 189.683594 298.515625 188.839844 299.664062 188.839844 300.972656 L 188.839844 300.984375 C 188.839844 303.046875 190.863281 304.519531 192.820312 303.875 C 202.449219 300.695312 210.070312 293.070312 213.246094 283.441406 C 213.898438 281.484375 212.425781 279.460938 210.359375 279.460938 C 209.054688 279.460938 207.902344 280.300781 207.492188 281.542969 " fill-opacity="1" fill-rule="nonzero"/><path fill="#e1f0fa" d="M 283.453125 166.605469 C 277.722656 162.152344 270.523438 159.492188 262.699219 159.492188 C 244.003906 159.492188 228.847656 174.648438 228.847656 193.34375 C 228.847656 201.167969 231.507812 208.363281 235.964844 214.097656 L 283.453125 166.605469 " fill-opacity="1" fill-rule="nonzero"/><path fill="#7655fa" d="M 289.4375 172.59375 L 241.949219 220.082031 C 247.683594 224.539062 254.878906 227.195312 262.699219 227.195312 C 281.398438 227.195312 296.554688 212.042969 296.554688 193.34375 C 296.554688 185.523438 293.894531 178.324219 289.4375 172.59375 " fill-opacity="1" fill-rule="nonzero"/><path fill="#7655fa" d="M 225.769531 230.273438 C 215.90625 220.40625 210.476562 207.296875 210.476562 193.34375 C 210.476562 179.394531 215.90625 166.277344 225.773438 156.414062 C 226.042969 156.144531 226.320312 155.890625 226.59375 155.625 L 226.59375 123.382812 C 226.59375 104.691406 211.4375 89.53125 192.742188 89.53125 C 174.046875 89.53125 158.890625 104.691406 158.890625 123.382812 L 158.890625 159.492188 L 122.785156 159.492188 C 104.085938 159.492188 88.929688 174.648438 88.929688 193.34375 C 88.929688 212.042969 104.085938 227.195312 122.785156 227.195312 L 158.890625 227.195312 L 158.890625 263.304688 C 158.890625 282.003906 174.046875 297.15625 192.742188 297.15625 C 211.4375 297.15625 226.59375 282.003906 226.59375 263.304688 L 226.59375 231.066406 C 226.320312 230.800781 226.042969 230.542969 225.769531 230.273438 " fill-opacity="1" fill-rule="nonzero"/><path fill="#ffffff" d="M 171.15625 116.273438 C 173.410156 109.457031 178.808594 104.058594 185.632812 101.804688 C 186.71875 101.449219 187.453125 100.441406 187.453125 99.296875 L 187.453125 99.289062 C 187.453125 97.484375 185.6875 96.195312 183.976562 96.761719 C 175.5625 99.542969 168.902344 106.203125 166.125 114.617188 C 165.558594 116.332031 166.847656 118.09375 168.648438 118.09375 C 169.789062 118.09375 170.796875 117.359375 171.15625 116.273438 " fill-opacity="1" fill-rule="nonzero"/><path fill="#ffffff" d="M 115.675781 214.652344 C 108.855469 212.398438 103.457031 207 101.203125 200.175781 C 100.84375 199.089844 99.839844 198.355469 98.695312 198.355469 L 98.683594 198.355469 C 96.882812 198.355469 95.59375 200.125 96.160156 201.832031 C 98.9375 210.246094 105.601562 216.90625 114.015625 219.683594 C 115.726562 220.246094 117.492188 218.960938 117.492188 217.160156 C 117.492188 216.019531 116.757812 215.011719 115.675781 214.652344 " fill-opacity="1" fill-rule="nonzero"/><g clip-path="url(#f0b0b3aaa7)"><path fill="#e1f0fa" d="M 141.621094 200.5 C 136.214844 200.5 131.828125 204.890625 131.828125 210.292969 C 131.828125 215.695312 136.214844 220.082031 141.621094 220.082031 Z M 141.621094 200.5 " fill-opacity="1" fill-rule="evenodd"/></g><g clip-path="url(#17c3dcd332)"><g clip-path="url(#afee78d2dc)"><path fill="url(#db0028a925)" d="M 132.292969 200.964844 L 141.589844 200.964844 L 141.589844 219.617188 L 132.292969 219.617188 Z M 132.292969 200.964844 " fill-rule="nonzero"/></g></g><g clip-path="url(#c2f6fc4f36)"><path fill="#e1f0fa" d="M 141.621094 203.296875 C 137.757812 203.296875 134.625 206.429688 134.625 210.292969 C 134.625 214.15625 137.757812 217.289062 141.621094 217.289062 Z M 141.621094 203.296875 " fill-opacity="1" fill-rule="evenodd"/></g><g clip-path="url(#dac99cb8b9)"><path fill="#e1f0fa" d="M 141.621094 206.515625 C 139.535156 206.515625 137.84375 208.207031 137.84375 210.292969 C 137.84375 212.378906 139.535156 214.070312 141.621094 214.070312 Z M 141.621094 206.515625 " fill-opacity="1" fill-rule="evenodd"/></g><g clip-path="url(#71d218076f)"><path fill="#e1f0fa" d="M 141.621094 200.5 C 147.023438 200.5 151.410156 204.890625 151.410156 210.292969 C 151.410156 215.695312 147.023438 220.082031 141.621094 220.082031 Z M 141.621094 200.5 " fill-opacity="1" fill-rule="evenodd"/></g><g clip-path="url(#2793c1b334)"><g clip-path="url(#9ee33d7166)"><path fill="url(#6a7a49bbe9)" d="M 150.949219 200.964844 L 141.621094 200.964844 L 141.621094 219.617188 L 150.949219 219.617188 Z M 150.949219 200.964844 " fill-rule="nonzero"/></g></g><g clip-path="url(#21767f2785)"><path fill="#e1f0fa" d="M 141.621094 203.296875 C 145.484375 203.296875 148.617188 206.429688 148.617188 210.292969 C 148.617188 214.15625 145.484375 217.289062 141.621094 217.289062 Z M 141.621094 203.296875 " fill-opacity="1" fill-rule="evenodd"/></g><g clip-path="url(#f330cc769e)"><path fill="#e1f0fa" d="M 141.621094 206.515625 C 143.707031 206.515625 145.398438 208.207031 145.398438 210.292969 C 145.398438 212.378906 143.707031 214.070312 141.621094 214.070312 Z M 141.621094 206.515625 " fill-opacity="1" fill-rule="evenodd"/></g></svg>