<svg xmlns="http://www.w3.org/2000/svg" xmlns:xlink="http://www.w3.org/1999/xlink" width="500" zoomAndPan="magnify" viewBox="0 0 375 374.999991" height="500" preserveAspectRatio="xMidYMid meet" version="1.0"><defs><clipPath id="cfca710a8b"><path d="M 55 4.085938 L 108 4.085938 L 108 89 L 55 89 Z M 55 4.085938 " clip-rule="nonzero"/></clipPath><clipPath id="cc7b537688"><path d="M 241.53125 220.664062 L 251.40625 220.664062 L 251.40625 240.550781 L 241.53125 240.550781 Z M 241.53125 220.664062 " clip-rule="nonzero"/></clipPath><clipPath id="e6b709d53d"><path d="M 241.53125 221 L 251.40625 221 L 251.40625 240.550781 L 241.53125 240.550781 Z M 241.53125 221 " clip-rule="nonzero"/></clipPath><clipPath id="f9aa3f42dd"><path d="M 251.441406 221.136719 C 246.214844 221.136719 241.96875 225.378906 241.96875 230.605469 C 241.96875 235.832031 246.214844 240.074219 251.441406 240.074219 L 251.441406 239.734375 C 246.402344 239.734375 242.308594 235.644531 242.308594 230.605469 C 242.308594 225.566406 246.402344 221.476562 251.441406 221.476562 Z M 251.441406 221.136719 " clip-rule="evenodd"/></clipPath><linearGradient x1="-0.000000053495" gradientTransform="matrix(0, 19.409723, 19.409723, 0, 251.439728, 221.136975)" y1="0" x2="0.975706" gradientUnits="userSpaceOnUse" y2="0" id="b593839f63"><stop stop-opacity="1" stop-color="rgb(59.599304%, 39.99939%, 15.299988%)" offset="0"/><stop stop-opacity="1" stop-color="rgb(59.770203%, 40.136719%, 15.306091%)" offset="0.015625"/><stop stop-opacity="1" stop-color="rgb(60.112%, 40.411377%, 15.316772%)" offset="0.03125"/><stop stop-opacity="1" stop-color="rgb(60.452271%, 40.684509%, 15.328979%)" offset="0.046875"/><stop stop-opacity="1" stop-color="rgb(60.794067%, 40.959167%, 15.341187%)" offset="0.0625"/><stop stop-opacity="1" stop-color="rgb(61.135864%, 41.233826%, 15.353394%)" offset="0.078125"/><stop stop-opacity="1" stop-color="rgb(61.477661%, 41.508484%, 15.365601%)" offset="0.09375"/><stop stop-opacity="1" stop-color="rgb(61.819458%, 41.783142%, 15.377808%)" offset="0.109375"/><stop stop-opacity="1" stop-color="rgb(62.159729%, 42.0578%, 15.390015%)" offset="0.125"/><stop stop-opacity="1" stop-color="rgb(62.501526%, 42.330933%, 15.402222%)" offset="0.140625"/><stop stop-opacity="1" stop-color="rgb(62.843323%, 42.605591%, 15.414429%)" offset="0.15625"/><stop stop-opacity="1" stop-color="rgb(63.18512%, 42.880249%, 15.426636%)" offset="0.171875"/><stop stop-opacity="1" stop-color="rgb(63.526917%, 43.154907%, 15.438843%)" offset="0.1875"/><stop stop-opacity="1" stop-color="rgb(63.867188%, 43.429565%, 15.45105%)" offset="0.203125"/><stop stop-opacity="1" stop-color="rgb(64.208984%, 43.704224%, 15.463257%)" offset="0.21875"/><stop stop-opacity="1" stop-color="rgb(64.550781%, 43.978882%, 15.475464%)" offset="0.234375"/><stop stop-opacity="1" stop-color="rgb(64.892578%, 44.252014%, 15.487671%)" offset="0.25"/><stop stop-opacity="1" stop-color="rgb(65.234375%, 44.526672%, 15.499878%)" offset="0.265625"/><stop stop-opacity="1" stop-color="rgb(65.574646%, 44.801331%, 15.512085%)" offset="0.28125"/><stop stop-opacity="1" stop-color="rgb(65.916443%, 45.075989%, 15.524292%)" offset="0.296875"/><stop stop-opacity="1" stop-color="rgb(66.25824%, 45.350647%, 15.536499%)" offset="0.3125"/><stop stop-opacity="1" stop-color="rgb(66.600037%, 45.625305%, 15.548706%)" offset="0.328125"/><stop stop-opacity="1" stop-color="rgb(66.941833%, 45.898438%, 15.560913%)" offset="0.34375"/><stop stop-opacity="1" stop-color="rgb(67.282104%, 46.173096%, 15.57312%)" offset="0.359375"/><stop stop-opacity="1" stop-color="rgb(67.623901%, 46.447754%, 15.585327%)" offset="0.375"/><stop stop-opacity="1" stop-color="rgb(67.965698%, 46.722412%, 15.597534%)" offset="0.390625"/><stop stop-opacity="1" stop-color="rgb(68.307495%, 46.99707%, 15.609741%)" offset="0.40625"/><stop stop-opacity="1" stop-color="rgb(68.649292%, 47.271729%, 15.621948%)" offset="0.421875"/><stop stop-opacity="1" stop-color="rgb(68.989563%, 47.544861%, 15.634155%)" offset="0.4375"/><stop stop-opacity="1" stop-color="rgb(69.33136%, 47.819519%, 15.646362%)" offset="0.453125"/><stop stop-opacity="1" stop-color="rgb(69.673157%, 48.094177%, 15.658569%)" offset="0.46875"/><stop stop-opacity="1" stop-color="rgb(70.014954%, 48.368835%, 15.670776%)" offset="0.484375"/><stop stop-opacity="1" stop-color="rgb(70.35675%, 48.643494%, 15.682983%)" offset="0.5"/><stop stop-opacity="1" stop-color="rgb(70.697021%, 48.918152%, 15.69519%)" offset="0.515625"/><stop stop-opacity="1" stop-color="rgb(71.038818%, 49.19281%, 15.707397%)" offset="0.53125"/><stop stop-opacity="1" stop-color="rgb(71.380615%, 49.465942%, 15.719604%)" offset="0.546875"/><stop stop-opacity="1" stop-color="rgb(71.722412%, 49.740601%, 15.731812%)" offset="0.5625"/><stop stop-opacity="1" stop-color="rgb(72.064209%, 50.015259%, 15.744019%)" offset="0.578125"/><stop stop-opacity="1" stop-color="rgb(72.40448%, 50.289917%, 15.756226%)" offset="0.59375"/><stop stop-opacity="1" stop-color="rgb(72.746277%, 50.564575%, 15.768433%)" offset="0.609375"/><stop stop-opacity="1" stop-color="rgb(73.088074%, 50.839233%, 15.78064%)" offset="0.625"/><stop stop-opacity="1" stop-color="rgb(73.429871%, 51.112366%, 15.792847%)" offset="0.640625"/><stop stop-opacity="1" stop-color="rgb(73.771667%, 51.387024%, 15.805054%)" offset="0.65625"/><stop stop-opacity="1" stop-color="rgb(74.113464%, 51.661682%, 15.817261%)" offset="0.671875"/><stop stop-opacity="1" stop-color="rgb(74.453735%, 51.93634%, 15.829468%)" offset="0.6875"/><stop stop-opacity="1" stop-color="rgb(74.795532%, 52.210999%, 15.841675%)" offset="0.703125"/><stop stop-opacity="1" stop-color="rgb(75.137329%, 52.485657%, 15.853882%)" offset="0.71875"/><stop stop-opacity="1" stop-color="rgb(75.479126%, 52.758789%, 15.866089%)" offset="0.734375"/><stop stop-opacity="1" stop-color="rgb(75.820923%, 53.033447%, 15.878296%)" offset="0.75"/><stop stop-opacity="1" stop-color="rgb(76.161194%, 53.308105%, 15.890503%)" offset="0.765625"/><stop stop-opacity="1" stop-color="rgb(76.502991%, 53.582764%, 15.90271%)" offset="0.78125"/><stop stop-opacity="1" stop-color="rgb(76.844788%, 53.857422%, 15.914917%)" offset="0.796875"/><stop stop-opacity="1" stop-color="rgb(77.186584%, 54.13208%, 15.927124%)" offset="0.8125"/><stop stop-opacity="1" stop-color="rgb(77.528381%, 54.406738%, 15.939331%)" offset="0.828125"/><stop stop-opacity="1" stop-color="rgb(77.868652%, 54.679871%, 15.951538%)" offset="0.84375"/><stop stop-opacity="1" stop-color="rgb(78.210449%, 54.954529%, 15.963745%)" offset="0.859375"/><stop stop-opacity="1" stop-color="rgb(78.552246%, 55.229187%, 15.975952%)" offset="0.875"/><stop stop-opacity="1" stop-color="rgb(78.894043%, 55.503845%, 15.988159%)" offset="0.890625"/><stop stop-opacity="1" stop-color="rgb(79.23584%, 55.778503%, 16.000366%)" offset="0.90625"/><stop stop-opacity="1" stop-color="rgb(79.576111%, 56.053162%, 16.012573%)" offset="0.921875"/><stop stop-opacity="1" stop-color="rgb(79.917908%, 56.326294%, 16.02478%)" offset="0.9375"/><stop stop-opacity="1" stop-color="rgb(80.259705%, 56.600952%, 16.036987%)" offset="0.953125"/><stop stop-opacity="1" stop-color="rgb(80.601501%, 56.87561%, 16.049194%)" offset="0.96875"/><stop stop-opacity="1" stop-color="rgb(80.943298%, 57.150269%, 16.061401%)" offset="0.984375"/><stop stop-opacity="1" stop-color="rgb(81.283569%, 57.424927%, 16.073608%)" offset="1"/></linearGradient><clipPath id="8ac7e8d474"><path d="M 244 223 L 251.40625 223 L 251.40625 238 L 244 238 Z M 244 223 " clip-rule="nonzero"/></clipPath><clipPath id="5da942553a"><path d="M 247 226 L 251.40625 226 L 251.40625 235 L 247 235 Z M 247 226 " clip-rule="nonzero"/></clipPath><clipPath id="3c7f4d7c85"><path d="M 251.441406 220.664062 L 261.347656 220.664062 L 261.347656 240.550781 L 251.441406 240.550781 Z M 251.441406 220.664062 " clip-rule="nonzero"/></clipPath><clipPath id="a4375e216f"><path d="M 251.441406 221 L 261 221 L 261 240.550781 L 251.441406 240.550781 Z M 251.441406 221 " clip-rule="nonzero"/></clipPath><clipPath id="9d85198533"><path d="M 251.441406 221.136719 C 256.667969 221.136719 260.910156 225.378906 260.910156 230.605469 C 260.910156 235.832031 256.667969 240.074219 251.441406 240.074219 L 251.441406 239.734375 C 256.480469 239.734375 260.570312 235.644531 260.570312 230.605469 C 260.570312 225.566406 256.480469 221.476562 251.441406 221.476562 Z M 251.441406 221.136719 " clip-rule="evenodd"/></clipPath><linearGradient x1="-0.000000053495" gradientTransform="matrix(0, 19.409723, -19.409723, 0, 251.440478, 221.136975)" y1="0" x2="0.975706" gradientUnits="userSpaceOnUse" y2="0" id="1317d24c7c"><stop stop-opacity="1" stop-color="rgb(59.599304%, 39.99939%, 15.299988%)" offset="0"/><stop stop-opacity="1" stop-color="rgb(59.770203%, 40.136719%, 15.306091%)" offset="0.015625"/><stop stop-opacity="1" stop-color="rgb(60.112%, 40.411377%, 15.316772%)" offset="0.03125"/><stop stop-opacity="1" stop-color="rgb(60.452271%, 40.684509%, 15.328979%)" offset="0.046875"/><stop stop-opacity="1" stop-color="rgb(60.794067%, 40.959167%, 15.341187%)" offset="0.0625"/><stop stop-opacity="1" stop-color="rgb(61.135864%, 41.233826%, 15.353394%)" offset="0.078125"/><stop stop-opacity="1" stop-color="rgb(61.477661%, 41.508484%, 15.365601%)" offset="0.09375"/><stop stop-opacity="1" stop-color="rgb(61.819458%, 41.783142%, 15.377808%)" offset="0.109375"/><stop stop-opacity="1" stop-color="rgb(62.159729%, 42.0578%, 15.390015%)" offset="0.125"/><stop stop-opacity="1" stop-color="rgb(62.501526%, 42.330933%, 15.402222%)" offset="0.140625"/><stop stop-opacity="1" stop-color="rgb(62.843323%, 42.605591%, 15.414429%)" offset="0.15625"/><stop stop-opacity="1" stop-color="rgb(63.18512%, 42.880249%, 15.426636%)" offset="0.171875"/><stop stop-opacity="1" stop-color="rgb(63.526917%, 43.154907%, 15.438843%)" offset="0.1875"/><stop stop-opacity="1" stop-color="rgb(63.867188%, 43.429565%, 15.45105%)" offset="0.203125"/><stop stop-opacity="1" stop-color="rgb(64.208984%, 43.704224%, 15.463257%)" offset="0.21875"/><stop stop-opacity="1" stop-color="rgb(64.550781%, 43.978882%, 15.475464%)" offset="0.234375"/><stop stop-opacity="1" stop-color="rgb(64.892578%, 44.252014%, 15.487671%)" offset="0.25"/><stop stop-opacity="1" stop-color="rgb(65.234375%, 44.526672%, 15.499878%)" offset="0.265625"/><stop stop-opacity="1" stop-color="rgb(65.574646%, 44.801331%, 15.512085%)" offset="0.28125"/><stop stop-opacity="1" stop-color="rgb(65.916443%, 45.075989%, 15.524292%)" offset="0.296875"/><stop stop-opacity="1" stop-color="rgb(66.25824%, 45.350647%, 15.536499%)" offset="0.3125"/><stop stop-opacity="1" stop-color="rgb(66.600037%, 45.625305%, 15.548706%)" offset="0.328125"/><stop stop-opacity="1" stop-color="rgb(66.941833%, 45.898438%, 15.560913%)" offset="0.34375"/><stop stop-opacity="1" stop-color="rgb(67.282104%, 46.173096%, 15.57312%)" offset="0.359375"/><stop stop-opacity="1" stop-color="rgb(67.623901%, 46.447754%, 15.585327%)" offset="0.375"/><stop stop-opacity="1" stop-color="rgb(67.965698%, 46.722412%, 15.597534%)" offset="0.390625"/><stop stop-opacity="1" stop-color="rgb(68.307495%, 46.99707%, 15.609741%)" offset="0.40625"/><stop stop-opacity="1" stop-color="rgb(68.649292%, 47.271729%, 15.621948%)" offset="0.421875"/><stop stop-opacity="1" stop-color="rgb(68.989563%, 47.544861%, 15.634155%)" offset="0.4375"/><stop stop-opacity="1" stop-color="rgb(69.33136%, 47.819519%, 15.646362%)" offset="0.453125"/><stop stop-opacity="1" stop-color="rgb(69.673157%, 48.094177%, 15.658569%)" offset="0.46875"/><stop stop-opacity="1" stop-color="rgb(70.014954%, 48.368835%, 15.670776%)" offset="0.484375"/><stop stop-opacity="1" stop-color="rgb(70.35675%, 48.643494%, 15.682983%)" offset="0.5"/><stop stop-opacity="1" stop-color="rgb(70.697021%, 48.918152%, 15.69519%)" offset="0.515625"/><stop stop-opacity="1" stop-color="rgb(71.038818%, 49.19281%, 15.707397%)" offset="0.53125"/><stop stop-opacity="1" stop-color="rgb(71.380615%, 49.465942%, 15.719604%)" offset="0.546875"/><stop stop-opacity="1" stop-color="rgb(71.722412%, 49.740601%, 15.731812%)" offset="0.5625"/><stop stop-opacity="1" stop-color="rgb(72.064209%, 50.015259%, 15.744019%)" offset="0.578125"/><stop stop-opacity="1" stop-color="rgb(72.40448%, 50.289917%, 15.756226%)" offset="0.59375"/><stop stop-opacity="1" stop-color="rgb(72.746277%, 50.564575%, 15.768433%)" offset="0.609375"/><stop stop-opacity="1" stop-color="rgb(73.088074%, 50.839233%, 15.78064%)" offset="0.625"/><stop stop-opacity="1" stop-color="rgb(73.429871%, 51.112366%, 15.792847%)" offset="0.640625"/><stop stop-opacity="1" stop-color="rgb(73.771667%, 51.387024%, 15.805054%)" offset="0.65625"/><stop stop-opacity="1" stop-color="rgb(74.113464%, 51.661682%, 15.817261%)" offset="0.671875"/><stop stop-opacity="1" stop-color="rgb(74.453735%, 51.93634%, 15.829468%)" offset="0.6875"/><stop stop-opacity="1" stop-color="rgb(74.795532%, 52.210999%, 15.841675%)" offset="0.703125"/><stop stop-opacity="1" stop-color="rgb(75.137329%, 52.485657%, 15.853882%)" offset="0.71875"/><stop stop-opacity="1" stop-color="rgb(75.479126%, 52.758789%, 15.866089%)" offset="0.734375"/><stop stop-opacity="1" stop-color="rgb(75.820923%, 53.033447%, 15.878296%)" offset="0.75"/><stop stop-opacity="1" stop-color="rgb(76.161194%, 53.308105%, 15.890503%)" offset="0.765625"/><stop stop-opacity="1" stop-color="rgb(76.502991%, 53.582764%, 15.90271%)" offset="0.78125"/><stop stop-opacity="1" stop-color="rgb(76.844788%, 53.857422%, 15.914917%)" offset="0.796875"/><stop stop-opacity="1" stop-color="rgb(77.186584%, 54.13208%, 15.927124%)" offset="0.8125"/><stop stop-opacity="1" stop-color="rgb(77.528381%, 54.406738%, 15.939331%)" offset="0.828125"/><stop stop-opacity="1" stop-color="rgb(77.868652%, 54.679871%, 15.951538%)" offset="0.84375"/><stop stop-opacity="1" stop-color="rgb(78.210449%, 54.954529%, 15.963745%)" offset="0.859375"/><stop stop-opacity="1" stop-color="rgb(78.552246%, 55.229187%, 15.975952%)" offset="0.875"/><stop stop-opacity="1" stop-color="rgb(78.894043%, 55.503845%, 15.988159%)" offset="0.890625"/><stop stop-opacity="1" stop-color="rgb(79.23584%, 55.778503%, 16.000366%)" offset="0.90625"/><stop stop-opacity="1" stop-color="rgb(79.576111%, 56.053162%, 16.012573%)" offset="0.921875"/><stop stop-opacity="1" stop-color="rgb(79.917908%, 56.326294%, 16.02478%)" offset="0.9375"/><stop stop-opacity="1" stop-color="rgb(80.259705%, 56.600952%, 16.036987%)" offset="0.953125"/><stop stop-opacity="1" stop-color="rgb(80.601501%, 56.87561%, 16.049194%)" offset="0.96875"/><stop stop-opacity="1" stop-color="rgb(80.943298%, 57.150269%, 16.061401%)" offset="0.984375"/><stop stop-opacity="1" stop-color="rgb(81.283569%, 57.424927%, 16.073608%)" offset="1"/></linearGradient><clipPath id="e7c83a02b3"><path d="M 251.441406 223 L 259 223 L 259 238 L 251.441406 238 Z M 251.441406 223 " clip-rule="nonzero"/></clipPath><clipPath id="d93d131ce2"><path d="M 251.441406 226 L 256 226 L 256 235 L 251.441406 235 Z M 251.441406 226 " clip-rule="nonzero"/></clipPath></defs><g clip-path="url(#cfca710a8b)"><path fill="#38b6ff" d="M 76.800781 33.671875 L 100.398438 85.613281 C 129.238281 23.726562 65.734375 4.089844 65.734375 4.089844 L 65.789062 4.234375 C 64.570312 6.234375 31.984375 60.871094 92.605469 88.296875 L 76.800781 33.671875 " fill-opacity="1" fill-rule="nonzero"/></g><path fill="#38b6ff" d="M 38.226562 97.082031 L 81.269531 104.738281 C 40.804688 137.90625 14.160156 94.484375 14.160156 94.484375 L 14.277344 94.5 C 15.53125 93.214844 49.910156 58.644531 81.785156 98.441406 L 38.226562 97.082031 " fill-opacity="1" fill-rule="nonzero"/><path fill="#38b6ff" d="M 114.386719 108.160156 C 114.386719 114.285156 109.421875 119.25 103.300781 119.25 C 97.175781 119.25 92.214844 114.285156 92.214844 108.160156 C 92.214844 102.039062 97.175781 97.074219 103.300781 97.074219 C 109.421875 97.074219 114.386719 102.039062 114.386719 108.160156 " fill-opacity="1" fill-rule="nonzero"/><path fill="#38b6ff" d="M 16.230469 80.359375 C 10.109375 80.359375 5.144531 75.394531 5.144531 69.269531 C 5.144531 63.148438 10.109375 58.183594 16.230469 58.183594 C 22.355469 58.183594 27.316406 63.148438 27.316406 69.269531 C 27.316406 75.394531 22.355469 80.359375 16.230469 80.359375 " fill-opacity="1" fill-rule="nonzero"/><path fill="#38b6ff" d="M 123.621094 23.707031 C 126.929688 27.019531 126.929688 32.382812 123.621094 35.695312 C 120.308594 39.003906 114.945312 39.003906 111.632812 35.695312 C 108.324219 32.382812 108.324219 27.019531 111.632812 23.707031 C 114.945312 20.398438 120.308594 20.398438 123.621094 23.707031 " fill-opacity="1" fill-rule="nonzero"/><path fill="#38b6ff" d="M 50.996094 57.652344 C 52.554688 59.210938 52.554688 61.742188 50.996094 63.300781 C 49.4375 64.859375 46.90625 64.859375 45.347656 63.300781 C 43.789062 61.742188 43.789062 59.210938 45.347656 57.652344 C 46.90625 56.09375 49.4375 56.09375 50.996094 57.652344 " fill-opacity="1" fill-rule="nonzero"/><path fill="#38b6ff" d="M 27.898438 121.597656 C 30.789062 121.597656 33.128906 123.9375 33.128906 126.824219 C 33.128906 129.714844 30.789062 132.058594 27.898438 132.058594 C 25.011719 132.058594 22.667969 129.714844 22.667969 126.824219 C 22.667969 123.9375 25.011719 121.597656 27.898438 121.597656 " fill-opacity="1" fill-rule="nonzero"/><path fill="#67dcff" d="M 236.007812 338.21875 C 235.972656 338.097656 235.933594 337.972656 235.890625 337.851562 C 232.957031 328.816406 223.753906 323.246094 214.4375 325.085938 C 169.042969 334.039062 126.054688 318.21875 96.652344 288.820312 C 67.25 259.414062 51.433594 216.425781 60.386719 171.035156 C 62.226562 161.714844 56.65625 152.515625 47.617188 149.582031 C 47.496094 149.539062 47.375 149.5 47.253906 149.460938 C 36.507812 145.96875 25.042969 152.59375 22.84375 163.675781 C 11.210938 222.320312 31.625 277.875 69.613281 315.859375 C 107.597656 353.84375 163.152344 374.261719 221.796875 362.628906 C 232.878906 360.429688 239.5 348.960938 236.007812 338.21875 " fill-opacity="1" fill-rule="nonzero"/><path fill="#38b6ff" d="M 311.460938 74.011719 C 273.476562 36.027344 217.917969 15.613281 159.273438 27.242188 C 148.191406 29.441406 141.566406 40.90625 145.0625 51.65625 C 145.097656 51.777344 145.140625 51.898438 145.179688 52.019531 C 148.113281 61.058594 157.3125 66.628906 166.636719 64.785156 C 212.023438 55.835938 255.011719 71.652344 284.417969 101.054688 C 313.820312 130.457031 329.636719 173.445312 320.683594 218.835938 C 318.84375 228.15625 324.417969 237.359375 333.453125 240.292969 C 333.574219 240.332031 333.695312 240.375 333.816406 240.410156 C 344.5625 243.90625 356.027344 237.28125 358.230469 226.199219 C 369.859375 167.550781 349.445312 111.996094 311.460938 74.011719 " fill-opacity="1" fill-rule="nonzero"/><path fill="#ffffff" d="M 205.09375 281.996094 C 202.546875 289.703125 196.449219 295.800781 188.738281 298.34375 C 187.515625 298.75 186.683594 299.882812 186.683594 301.175781 L 186.683594 301.1875 C 186.683594 303.222656 188.679688 304.675781 190.613281 304.039062 C 200.117188 300.902344 207.640625 293.375 210.777344 283.871094 C 211.417969 281.9375 209.964844 279.941406 207.925781 279.941406 C 206.636719 279.941406 205.5 280.769531 205.09375 281.996094 " fill-opacity="1" fill-rule="nonzero"/><path fill="#38b6ff" d="M 280.078125 168.542969 C 274.417969 164.148438 267.316406 161.523438 259.589844 161.523438 C 241.136719 161.523438 226.175781 176.480469 226.175781 194.9375 C 226.175781 202.65625 228.800781 209.761719 233.199219 215.417969 L 280.078125 168.542969 " fill-opacity="1" fill-rule="nonzero"/><path fill="#67dcff" d="M 285.980469 174.453125 L 239.105469 221.328125 C 244.765625 225.726562 251.867188 228.351562 259.589844 228.351562 C 278.046875 228.351562 293.007812 213.390625 293.007812 194.9375 C 293.007812 187.214844 290.382812 180.109375 285.980469 174.453125 " fill-opacity="1" fill-rule="nonzero"/><path fill="#67dcff" d="M 223.136719 231.390625 C 213.402344 221.652344 208.039062 208.707031 208.039062 194.9375 C 208.039062 181.167969 213.402344 168.21875 223.140625 158.484375 C 223.40625 158.214844 223.683594 157.964844 223.949219 157.703125 L 223.949219 125.878906 C 223.949219 107.425781 208.992188 92.464844 190.535156 92.464844 C 172.082031 92.464844 157.121094 107.425781 157.121094 125.878906 L 157.121094 161.523438 L 121.480469 161.523438 C 103.023438 161.523438 88.0625 176.480469 88.0625 194.9375 C 88.0625 213.390625 103.023438 228.351562 121.480469 228.351562 L 157.121094 228.351562 L 157.121094 263.996094 C 157.121094 282.449219 172.082031 297.410156 190.535156 297.410156 C 208.992188 297.410156 223.949219 282.449219 223.949219 263.996094 L 223.949219 232.171875 C 223.683594 231.910156 223.40625 231.652344 223.136719 231.390625 " fill-opacity="1" fill-rule="nonzero"/><path fill="#ffffff" d="M 169.226562 118.863281 C 171.453125 112.128906 176.78125 106.800781 183.519531 104.578125 C 184.589844 104.226562 185.316406 103.230469 185.316406 102.105469 L 185.316406 102.09375 C 185.316406 100.3125 183.574219 99.039062 181.882812 99.601562 C 173.578125 102.34375 167.003906 108.917969 164.261719 117.226562 C 163.703125 118.914062 164.972656 120.65625 166.753906 120.65625 C 167.878906 120.65625 168.875 119.933594 169.226562 118.863281 " fill-opacity="1" fill-rule="nonzero"/><path fill="#ffffff" d="M 114.464844 215.96875 C 107.730469 213.746094 102.402344 208.417969 100.179688 201.679688 C 99.824219 200.609375 98.832031 199.882812 97.703125 199.882812 L 97.691406 199.882812 C 95.914062 199.882812 94.640625 201.628906 95.199219 203.3125 C 97.941406 211.621094 104.519531 218.191406 112.828125 220.9375 C 114.515625 221.492188 116.257812 220.222656 116.257812 218.441406 C 116.257812 217.316406 115.53125 216.324219 114.464844 215.96875 " fill-opacity="1" fill-rule="nonzero"/><g clip-path="url(#cc7b537688)"><path fill="#38b6ff" d="M 251.441406 220.664062 C 245.953125 220.664062 241.5 225.121094 241.5 230.605469 C 241.5 236.09375 245.953125 240.546875 251.441406 240.546875 Z M 251.441406 220.664062 " fill-opacity="1" fill-rule="evenodd"/></g><g clip-path="url(#e6b709d53d)"><g clip-path="url(#f9aa3f42dd)"><path fill="url(#b593839f63)" d="M 241.96875 221.136719 L 251.40625 221.136719 L 251.40625 240.074219 L 241.96875 240.074219 Z M 241.96875 221.136719 " fill-rule="nonzero"/></g></g><g clip-path="url(#8ac7e8d474)"><path fill="#38b6ff" d="M 251.441406 223.5 C 247.519531 223.5 244.335938 226.683594 244.335938 230.605469 C 244.335938 234.527344 247.519531 237.710938 251.441406 237.710938 Z M 251.441406 223.5 " fill-opacity="1" fill-rule="evenodd"/></g><g clip-path="url(#5da942553a)"><path fill="#38b6ff" d="M 251.441406 226.769531 C 249.324219 226.769531 247.605469 228.488281 247.605469 230.605469 C 247.605469 232.722656 249.324219 234.441406 251.441406 234.441406 Z M 251.441406 226.769531 " fill-opacity="1" fill-rule="evenodd"/></g><g clip-path="url(#3c7f4d7c85)"><path fill="#38b6ff" d="M 251.441406 220.664062 C 256.925781 220.664062 261.382812 225.121094 261.382812 230.605469 C 261.382812 236.09375 256.925781 240.546875 251.441406 240.546875 Z M 251.441406 220.664062 " fill-opacity="1" fill-rule="evenodd"/></g><g clip-path="url(#a4375e216f)"><g clip-path="url(#9d85198533)"><path fill="url(#1317d24c7c)" d="M 260.910156 221.136719 L 251.441406 221.136719 L 251.441406 240.074219 L 260.910156 240.074219 Z M 260.910156 221.136719 " fill-rule="nonzero"/></g></g><g clip-path="url(#e7c83a02b3)"><path fill="#38b6ff" d="M 251.441406 223.5 C 255.363281 223.5 258.542969 226.683594 258.542969 230.605469 C 258.542969 234.527344 255.363281 237.710938 251.441406 237.710938 Z M 251.441406 223.5 " fill-opacity="1" fill-rule="evenodd"/></g><g clip-path="url(#d93d131ce2)"><path fill="#38b6ff" d="M 251.441406 226.769531 C 253.558594 226.769531 255.273438 228.488281 255.273438 230.605469 C 255.273438 232.722656 253.558594 234.441406 251.441406 234.441406 Z M 251.441406 226.769531 " fill-opacity="1" fill-rule="evenodd"/></g></svg>