<svg xmlns="http://www.w3.org/2000/svg" xmlns:xlink="http://www.w3.org/1999/xlink" width="200" zoomAndPan="magnify" viewBox="0 0 375 374.999991" preserveAspectRatio="xMidYMid meet" version="1.0"><defs><g/><clipPath id="83df02bc0a"><path d="M 26 94.054688 L 47 94.054688 L 47 128 L 26 128 Z M 26 94.054688 " clip-rule="nonzero"/></clipPath><clipPath id="f34e9742d0"><path d="M 5.875 115 L 15 115 L 15 125 L 5.875 125 Z M 5.875 115 " clip-rule="nonzero"/></clipPath><clipPath id="2cabef9c87"><path d="M 131.863281 200.5 L 141.589844 200.5 L 141.589844 220.085938 L 131.863281 220.085938 Z M 131.863281 200.5 " clip-rule="nonzero"/></clipPath><clipPath id="1ec5bffbc6"><path d="M 132 200.5 L 141.589844 200.5 L 141.589844 220 L 132 220 Z M 132 200.5 " clip-rule="nonzero"/></clipPath><clipPath id="bb0e1cb6a2"><path d="M 141.621094 200.964844 C 136.472656 200.964844 132.292969 205.144531 132.292969 210.292969 C 132.292969 215.441406 136.472656 219.617188 141.621094 219.617188 L 141.621094 219.285156 C 136.65625 219.285156 132.628906 215.253906 132.628906 210.292969 C 132.628906 205.328125 136.65625 201.300781 141.621094 201.300781 Z M 141.621094 200.964844 " clip-rule="evenodd"/></clipPath><linearGradient x1="-0.000000384078" gradientTransform="matrix(0, 19.117207, 19.117207, 0, 141.620408, 200.966135)" y1="0" x2="0.975706" gradientUnits="userSpaceOnUse" y2="0" id="14c3c631c0"><stop stop-opacity="1" stop-color="rgb(59.599304%, 39.99939%, 15.299988%)" offset="0"/><stop stop-opacity="1" stop-color="rgb(59.770203%, 40.136719%, 15.306091%)" offset="0.015625"/><stop stop-opacity="1" stop-color="rgb(60.112%, 40.411377%, 15.316772%)" offset="0.03125"/><stop stop-opacity="1" stop-color="rgb(60.452271%, 40.684509%, 15.328979%)" offset="0.046875"/><stop stop-opacity="1" stop-color="rgb(60.794067%, 40.959167%, 15.341187%)" offset="0.0625"/><stop stop-opacity="1" stop-color="rgb(61.135864%, 41.233826%, 15.353394%)" offset="0.078125"/><stop stop-opacity="1" stop-color="rgb(61.477661%, 41.508484%, 15.365601%)" offset="0.09375"/><stop stop-opacity="1" stop-color="rgb(61.819458%, 41.783142%, 15.377808%)" offset="0.109375"/><stop stop-opacity="1" stop-color="rgb(62.159729%, 42.0578%, 15.390015%)" offset="0.125"/><stop stop-opacity="1" stop-color="rgb(62.501526%, 42.330933%, 15.402222%)" offset="0.140625"/><stop stop-opacity="1" stop-color="rgb(62.843323%, 42.605591%, 15.414429%)" offset="0.15625"/><stop stop-opacity="1" stop-color="rgb(63.18512%, 42.880249%, 15.426636%)" offset="0.171875"/><stop stop-opacity="1" stop-color="rgb(63.526917%, 43.154907%, 15.438843%)" offset="0.1875"/><stop stop-opacity="1" stop-color="rgb(63.867188%, 43.429565%, 15.45105%)" offset="0.203125"/><stop stop-opacity="1" stop-color="rgb(64.208984%, 43.704224%, 15.463257%)" offset="0.21875"/><stop stop-opacity="1" stop-color="rgb(64.550781%, 43.978882%, 15.475464%)" offset="0.234375"/><stop stop-opacity="1" stop-color="rgb(64.892578%, 44.252014%, 15.487671%)" offset="0.25"/><stop stop-opacity="1" stop-color="rgb(65.234375%, 44.526672%, 15.499878%)" offset="0.265625"/><stop stop-opacity="1" stop-color="rgb(65.574646%, 44.801331%, 15.512085%)" offset="0.28125"/><stop stop-opacity="1" stop-color="rgb(65.916443%, 45.075989%, 15.524292%)" offset="0.296875"/><stop stop-opacity="1" stop-color="rgb(66.25824%, 45.350647%, 15.536499%)" offset="0.3125"/><stop stop-opacity="1" stop-color="rgb(66.600037%, 45.625305%, 15.548706%)" offset="0.328125"/><stop stop-opacity="1" stop-color="rgb(66.941833%, 45.898438%, 15.560913%)" offset="0.34375"/><stop stop-opacity="1" stop-color="rgb(67.282104%, 46.173096%, 15.57312%)" offset="0.359375"/><stop stop-opacity="1" stop-color="rgb(67.623901%, 46.447754%, 15.585327%)" offset="0.375"/><stop stop-opacity="1" stop-color="rgb(67.965698%, 46.722412%, 15.597534%)" offset="0.390625"/><stop stop-opacity="1" stop-color="rgb(68.307495%, 46.99707%, 15.609741%)" offset="0.40625"/><stop stop-opacity="1" stop-color="rgb(68.649292%, 47.271729%, 15.621948%)" offset="0.421875"/><stop stop-opacity="1" stop-color="rgb(68.989563%, 47.544861%, 15.634155%)" offset="0.4375"/><stop stop-opacity="1" stop-color="rgb(69.33136%, 47.819519%, 15.646362%)" offset="0.453125"/><stop stop-opacity="1" stop-color="rgb(69.673157%, 48.094177%, 15.658569%)" offset="0.46875"/><stop stop-opacity="1" stop-color="rgb(70.014954%, 48.368835%, 15.670776%)" offset="0.484375"/><stop stop-opacity="1" stop-color="rgb(70.35675%, 48.643494%, 15.682983%)" offset="0.5"/><stop stop-opacity="1" stop-color="rgb(70.697021%, 48.918152%, 15.69519%)" offset="0.515625"/><stop stop-opacity="1" stop-color="rgb(71.038818%, 49.19281%, 15.707397%)" offset="0.53125"/><stop stop-opacity="1" stop-color="rgb(71.380615%, 49.465942%, 15.719604%)" offset="0.546875"/><stop stop-opacity="1" stop-color="rgb(71.722412%, 49.740601%, 15.731812%)" offset="0.5625"/><stop stop-opacity="1" stop-color="rgb(72.064209%, 50.015259%, 15.744019%)" offset="0.578125"/><stop stop-opacity="1" stop-color="rgb(72.40448%, 50.289917%, 15.756226%)" offset="0.59375"/><stop stop-opacity="1" stop-color="rgb(72.746277%, 50.564575%, 15.768433%)" offset="0.609375"/><stop stop-opacity="1" stop-color="rgb(73.088074%, 50.839233%, 15.78064%)" offset="0.625"/><stop stop-opacity="1" stop-color="rgb(73.429871%, 51.112366%, 15.792847%)" offset="0.640625"/><stop stop-opacity="1" stop-color="rgb(73.771667%, 51.387024%, 15.805054%)" offset="0.65625"/><stop stop-opacity="1" stop-color="rgb(74.113464%, 51.661682%, 15.817261%)" offset="0.671875"/><stop stop-opacity="1" stop-color="rgb(74.453735%, 51.93634%, 15.829468%)" offset="0.6875"/><stop stop-opacity="1" stop-color="rgb(74.795532%, 52.210999%, 15.841675%)" offset="0.703125"/><stop stop-opacity="1" stop-color="rgb(75.137329%, 52.485657%, 15.853882%)" offset="0.71875"/><stop stop-opacity="1" stop-color="rgb(75.479126%, 52.758789%, 15.866089%)" offset="0.734375"/><stop stop-opacity="1" stop-color="rgb(75.820923%, 53.033447%, 15.878296%)" offset="0.75"/><stop stop-opacity="1" stop-color="rgb(76.161194%, 53.308105%, 15.890503%)" offset="0.765625"/><stop stop-opacity="1" stop-color="rgb(76.502991%, 53.582764%, 15.90271%)" offset="0.78125"/><stop stop-opacity="1" stop-color="rgb(76.844788%, 53.857422%, 15.914917%)" offset="0.796875"/><stop stop-opacity="1" stop-color="rgb(77.186584%, 54.13208%, 15.927124%)" offset="0.8125"/><stop stop-opacity="1" stop-color="rgb(77.528381%, 54.406738%, 15.939331%)" offset="0.828125"/><stop stop-opacity="1" stop-color="rgb(77.868652%, 54.679871%, 15.951538%)" offset="0.84375"/><stop stop-opacity="1" stop-color="rgb(78.210449%, 54.954529%, 15.963745%)" offset="0.859375"/><stop stop-opacity="1" stop-color="rgb(78.552246%, 55.229187%, 15.975952%)" offset="0.875"/><stop stop-opacity="1" stop-color="rgb(78.894043%, 55.503845%, 15.988159%)" offset="0.890625"/><stop stop-opacity="1" stop-color="rgb(79.23584%, 55.778503%, 16.000366%)" offset="0.90625"/><stop stop-opacity="1" stop-color="rgb(79.576111%, 56.053162%, 16.012573%)" offset="0.921875"/><stop stop-opacity="1" stop-color="rgb(79.917908%, 56.326294%, 16.02478%)" offset="0.9375"/><stop stop-opacity="1" stop-color="rgb(80.259705%, 56.600952%, 16.036987%)" offset="0.953125"/><stop stop-opacity="1" stop-color="rgb(80.601501%, 56.87561%, 16.049194%)" offset="0.96875"/><stop stop-opacity="1" stop-color="rgb(80.943298%, 57.150269%, 16.061401%)" offset="0.984375"/><stop stop-opacity="1" stop-color="rgb(81.283569%, 57.424927%, 16.073608%)" offset="1"/></linearGradient><clipPath id="b3c7dba1ce"><path d="M 134 203 L 141.589844 203 L 141.589844 218 L 134 218 Z M 134 203 " clip-rule="nonzero"/></clipPath><clipPath id="9b6248f332"><path d="M 137 206 L 141.589844 206 L 141.589844 215 L 137 215 Z M 137 206 " clip-rule="nonzero"/></clipPath><clipPath id="9b85b51494"><path d="M 141.621094 200.5 L 151.378906 200.5 L 151.378906 220.085938 L 141.621094 220.085938 Z M 141.621094 200.5 " clip-rule="nonzero"/></clipPath><clipPath id="1bf4466b02"><path d="M 141.621094 200.5 L 151 200.5 L 151 220 L 141.621094 220 Z M 141.621094 200.5 " clip-rule="nonzero"/></clipPath><clipPath id="f3e0461a0b"><path d="M 141.621094 200.964844 C 146.769531 200.964844 150.949219 205.144531 150.949219 210.292969 C 150.949219 215.441406 146.769531 219.617188 141.621094 219.617188 L 141.621094 219.285156 C 146.582031 219.285156 150.613281 215.253906 150.613281 210.292969 C 150.613281 205.328125 146.582031 201.300781 141.621094 201.300781 Z M 141.621094 200.964844 " clip-rule="evenodd"/></clipPath><linearGradient x1="-0.000000384078" gradientTransform="matrix(0, 19.117207, -19.117207, 0, 141.62111, 200.966135)" y1="0" x2="0.975706" gradientUnits="userSpaceOnUse" y2="0" id="0e58b06c72"><stop stop-opacity="1" stop-color="rgb(59.599304%, 39.99939%, 15.299988%)" offset="0"/><stop stop-opacity="1" stop-color="rgb(59.770203%, 40.136719%, 15.306091%)" offset="0.015625"/><stop stop-opacity="1" stop-color="rgb(60.112%, 40.411377%, 15.316772%)" offset="0.03125"/><stop stop-opacity="1" stop-color="rgb(60.452271%, 40.684509%, 15.328979%)" offset="0.046875"/><stop stop-opacity="1" stop-color="rgb(60.794067%, 40.959167%, 15.341187%)" offset="0.0625"/><stop stop-opacity="1" stop-color="rgb(61.135864%, 41.233826%, 15.353394%)" offset="0.078125"/><stop stop-opacity="1" stop-color="rgb(61.477661%, 41.508484%, 15.365601%)" offset="0.09375"/><stop stop-opacity="1" stop-color="rgb(61.819458%, 41.783142%, 15.377808%)" offset="0.109375"/><stop stop-opacity="1" stop-color="rgb(62.159729%, 42.0578%, 15.390015%)" offset="0.125"/><stop stop-opacity="1" stop-color="rgb(62.501526%, 42.330933%, 15.402222%)" offset="0.140625"/><stop stop-opacity="1" stop-color="rgb(62.843323%, 42.605591%, 15.414429%)" offset="0.15625"/><stop stop-opacity="1" stop-color="rgb(63.18512%, 42.880249%, 15.426636%)" offset="0.171875"/><stop stop-opacity="1" stop-color="rgb(63.526917%, 43.154907%, 15.438843%)" offset="0.1875"/><stop stop-opacity="1" stop-color="rgb(63.867188%, 43.429565%, 15.45105%)" offset="0.203125"/><stop stop-opacity="1" stop-color="rgb(64.208984%, 43.704224%, 15.463257%)" offset="0.21875"/><stop stop-opacity="1" stop-color="rgb(64.550781%, 43.978882%, 15.475464%)" offset="0.234375"/><stop stop-opacity="1" stop-color="rgb(64.892578%, 44.252014%, 15.487671%)" offset="0.25"/><stop stop-opacity="1" stop-color="rgb(65.234375%, 44.526672%, 15.499878%)" offset="0.265625"/><stop stop-opacity="1" stop-color="rgb(65.574646%, 44.801331%, 15.512085%)" offset="0.28125"/><stop stop-opacity="1" stop-color="rgb(65.916443%, 45.075989%, 15.524292%)" offset="0.296875"/><stop stop-opacity="1" stop-color="rgb(66.25824%, 45.350647%, 15.536499%)" offset="0.3125"/><stop stop-opacity="1" stop-color="rgb(66.600037%, 45.625305%, 15.548706%)" offset="0.328125"/><stop stop-opacity="1" stop-color="rgb(66.941833%, 45.898438%, 15.560913%)" offset="0.34375"/><stop stop-opacity="1" stop-color="rgb(67.282104%, 46.173096%, 15.57312%)" offset="0.359375"/><stop stop-opacity="1" stop-color="rgb(67.623901%, 46.447754%, 15.585327%)" offset="0.375"/><stop stop-opacity="1" stop-color="rgb(67.965698%, 46.722412%, 15.597534%)" offset="0.390625"/><stop stop-opacity="1" stop-color="rgb(68.307495%, 46.99707%, 15.609741%)" offset="0.40625"/><stop stop-opacity="1" stop-color="rgb(68.649292%, 47.271729%, 15.621948%)" offset="0.421875"/><stop stop-opacity="1" stop-color="rgb(68.989563%, 47.544861%, 15.634155%)" offset="0.4375"/><stop stop-opacity="1" stop-color="rgb(69.33136%, 47.819519%, 15.646362%)" offset="0.453125"/><stop stop-opacity="1" stop-color="rgb(69.673157%, 48.094177%, 15.658569%)" offset="0.46875"/><stop stop-opacity="1" stop-color="rgb(70.014954%, 48.368835%, 15.670776%)" offset="0.484375"/><stop stop-opacity="1" stop-color="rgb(70.35675%, 48.643494%, 15.682983%)" offset="0.5"/><stop stop-opacity="1" stop-color="rgb(70.697021%, 48.918152%, 15.69519%)" offset="0.515625"/><stop stop-opacity="1" stop-color="rgb(71.038818%, 49.19281%, 15.707397%)" offset="0.53125"/><stop stop-opacity="1" stop-color="rgb(71.380615%, 49.465942%, 15.719604%)" offset="0.546875"/><stop stop-opacity="1" stop-color="rgb(71.722412%, 49.740601%, 15.731812%)" offset="0.5625"/><stop stop-opacity="1" stop-color="rgb(72.064209%, 50.015259%, 15.744019%)" offset="0.578125"/><stop stop-opacity="1" stop-color="rgb(72.40448%, 50.289917%, 15.756226%)" offset="0.59375"/><stop stop-opacity="1" stop-color="rgb(72.746277%, 50.564575%, 15.768433%)" offset="0.609375"/><stop stop-opacity="1" stop-color="rgb(73.088074%, 50.839233%, 15.78064%)" offset="0.625"/><stop stop-opacity="1" stop-color="rgb(73.429871%, 51.112366%, 15.792847%)" offset="0.640625"/><stop stop-opacity="1" stop-color="rgb(73.771667%, 51.387024%, 15.805054%)" offset="0.65625"/><stop stop-opacity="1" stop-color="rgb(74.113464%, 51.661682%, 15.817261%)" offset="0.671875"/><stop stop-opacity="1" stop-color="rgb(74.453735%, 51.93634%, 15.829468%)" offset="0.6875"/><stop stop-opacity="1" stop-color="rgb(74.795532%, 52.210999%, 15.841675%)" offset="0.703125"/><stop stop-opacity="1" stop-color="rgb(75.137329%, 52.485657%, 15.853882%)" offset="0.71875"/><stop stop-opacity="1" stop-color="rgb(75.479126%, 52.758789%, 15.866089%)" offset="0.734375"/><stop stop-opacity="1" stop-color="rgb(75.820923%, 53.033447%, 15.878296%)" offset="0.75"/><stop stop-opacity="1" stop-color="rgb(76.161194%, 53.308105%, 15.890503%)" offset="0.765625"/><stop stop-opacity="1" stop-color="rgb(76.502991%, 53.582764%, 15.90271%)" offset="0.78125"/><stop stop-opacity="1" stop-color="rgb(76.844788%, 53.857422%, 15.914917%)" offset="0.796875"/><stop stop-opacity="1" stop-color="rgb(77.186584%, 54.13208%, 15.927124%)" offset="0.8125"/><stop stop-opacity="1" stop-color="rgb(77.528381%, 54.406738%, 15.939331%)" offset="0.828125"/><stop stop-opacity="1" stop-color="rgb(77.868652%, 54.679871%, 15.951538%)" offset="0.84375"/><stop stop-opacity="1" stop-color="rgb(78.210449%, 54.954529%, 15.963745%)" offset="0.859375"/><stop stop-opacity="1" stop-color="rgb(78.552246%, 55.229187%, 15.975952%)" offset="0.875"/><stop stop-opacity="1" stop-color="rgb(78.894043%, 55.503845%, 15.988159%)" offset="0.890625"/><stop stop-opacity="1" stop-color="rgb(79.23584%, 55.778503%, 16.000366%)" offset="0.90625"/><stop stop-opacity="1" stop-color="rgb(79.576111%, 56.053162%, 16.012573%)" offset="0.921875"/><stop stop-opacity="1" stop-color="rgb(79.917908%, 56.326294%, 16.02478%)" offset="0.9375"/><stop stop-opacity="1" stop-color="rgb(80.259705%, 56.600952%, 16.036987%)" offset="0.953125"/><stop stop-opacity="1" stop-color="rgb(80.601501%, 56.87561%, 16.049194%)" offset="0.96875"/><stop stop-opacity="1" stop-color="rgb(80.943298%, 57.150269%, 16.061401%)" offset="0.984375"/><stop stop-opacity="1" stop-color="rgb(81.283569%, 57.424927%, 16.073608%)" offset="1"/></linearGradient><clipPath id="4fa909bc9f"><path d="M 141.621094 203 L 149 203 L 149 218 L 141.621094 218 Z M 141.621094 203 " clip-rule="nonzero"/></clipPath><clipPath id="ba8cbdbae6"><path d="M 141.621094 206 L 146 206 L 146 215 L 141.621094 215 Z M 141.621094 206 " clip-rule="nonzero"/></clipPath></defs><g clip-path="url(#83df02bc0a)"><path fill="#e1f0fa" d="M 34.515625 105.847656 L 43.921875 126.550781 C 55.421875 101.882812 30.105469 94.054688 30.105469 94.054688 L 30.125 94.113281 C 29.640625 94.910156 16.648438 116.691406 40.816406 127.621094 L 34.515625 105.847656 " fill-opacity="1" fill-rule="nonzero"/></g><path fill="#e1f0fa" d="M 19.136719 131.125 L 36.296875 134.175781 C 20.164062 147.398438 9.542969 130.089844 9.542969 130.089844 L 9.59375 130.097656 C 10.089844 129.585938 23.796875 115.800781 36.503906 131.667969 L 19.136719 131.125 " fill-opacity="1" fill-rule="nonzero"/><path fill="#e1f0fa" d="M 49.5 135.542969 C 49.5 137.984375 47.519531 139.960938 45.078125 139.960938 C 42.640625 139.960938 40.660156 137.984375 40.660156 135.542969 C 40.660156 133.101562 42.640625 131.121094 45.078125 131.121094 C 47.519531 131.121094 49.5 133.101562 49.5 135.542969 " fill-opacity="1" fill-rule="nonzero"/><g clip-path="url(#f34e9742d0)"><path fill="#e1f0fa" d="M 10.371094 124.457031 C 7.929688 124.457031 5.949219 122.480469 5.949219 120.039062 C 5.949219 117.597656 7.929688 115.617188 10.371094 115.617188 C 12.8125 115.617188 14.789062 117.597656 14.789062 120.039062 C 14.789062 122.480469 12.8125 124.457031 10.371094 124.457031 " fill-opacity="1" fill-rule="nonzero"/></g><path fill="#e1f0fa" d="M 53.179688 101.875 C 54.5 103.195312 54.5 105.332031 53.179688 106.652344 C 51.859375 107.972656 49.722656 107.972656 48.402344 106.652344 C 47.082031 105.332031 47.082031 103.195312 48.402344 101.875 C 49.722656 100.554688 51.859375 100.554688 53.179688 101.875 " fill-opacity="1" fill-rule="nonzero"/><path fill="#e1f0fa" d="M 24.230469 115.40625 C 24.851562 116.027344 24.851562 117.035156 24.230469 117.65625 C 23.605469 118.28125 22.597656 118.28125 21.976562 117.65625 C 21.355469 117.035156 21.355469 116.027344 21.976562 115.40625 C 22.597656 114.785156 23.605469 114.785156 24.230469 115.40625 " fill-opacity="1" fill-rule="nonzero"/><path fill="#e1f0fa" d="M 15.023438 140.898438 C 16.171875 140.898438 17.105469 141.832031 17.105469 142.980469 C 17.105469 144.132812 16.171875 145.066406 15.023438 145.066406 C 13.871094 145.066406 12.9375 144.132812 12.9375 142.980469 C 12.9375 141.832031 13.871094 140.898438 15.023438 140.898438 " fill-opacity="1" fill-rule="nonzero"/><path fill="#7655fa" d="M 97.984375 227.253906 C 97.96875 227.203125 97.953125 227.15625 97.9375 227.109375 C 96.765625 223.503906 93.097656 221.285156 89.382812 222.015625 C 71.289062 225.585938 54.152344 219.28125 42.429688 207.558594 C 30.707031 195.835938 24.402344 178.699219 27.972656 160.605469 C 28.707031 156.890625 26.484375 153.222656 22.882812 152.054688 C 22.835938 152.039062 22.785156 152.023438 22.738281 152.003906 C 18.453125 150.613281 13.882812 153.253906 13.007812 157.671875 C 8.371094 181.050781 16.507812 203.199219 31.648438 218.339844 C 46.792969 233.480469 68.9375 241.621094 92.316406 236.984375 C 96.734375 236.105469 99.375 231.535156 97.984375 227.253906 " fill-opacity="1" fill-rule="nonzero"/><path fill="#e1f0fa" d="M 128.0625 121.929688 C 112.917969 106.785156 90.773438 98.648438 67.394531 103.285156 C 62.976562 104.160156 60.335938 108.730469 61.726562 113.015625 C 61.742188 113.066406 61.757812 113.113281 61.773438 113.160156 C 62.945312 116.765625 66.613281 118.984375 70.328125 118.25 C 88.421875 114.683594 105.558594 120.988281 117.28125 132.710938 C 129.003906 144.429688 135.308594 161.566406 131.738281 179.664062 C 131.003906 183.378906 133.226562 187.046875 136.828125 188.214844 C 136.878906 188.230469 136.925781 188.25 136.972656 188.261719 C 141.257812 189.65625 145.828125 187.015625 146.707031 182.597656 C 151.34375 159.21875 143.203125 137.070312 128.0625 121.929688 " fill-opacity="1" fill-rule="nonzero"/><path fill="#ffffff" d="M 85.660156 204.839844 C 84.644531 207.914062 82.214844 210.34375 79.140625 211.359375 C 78.652344 211.519531 78.320312 211.972656 78.320312 212.488281 L 78.320312 212.492188 C 78.320312 213.300781 79.117188 213.882812 79.886719 213.628906 C 83.675781 212.378906 86.675781 209.375 87.925781 205.585938 C 88.179688 204.816406 87.601562 204.019531 86.789062 204.019531 C 86.273438 204.019531 85.820312 204.351562 85.660156 204.839844 " fill-opacity="1" fill-rule="nonzero"/><path fill="#e1f0fa" d="M 115.550781 159.613281 C 113.296875 157.859375 110.464844 156.8125 107.382812 156.8125 C 100.027344 156.8125 94.0625 162.777344 94.0625 170.132812 C 94.0625 173.210938 95.109375 176.042969 96.863281 178.300781 L 115.550781 159.613281 " fill-opacity="1" fill-rule="nonzero"/><path fill="#7655fa" d="M 117.90625 161.96875 L 99.21875 180.65625 C 101.472656 182.410156 104.304688 183.457031 107.382812 183.457031 C 114.742188 183.457031 120.707031 177.492188 120.707031 170.132812 C 120.707031 167.054688 119.660156 164.222656 117.90625 161.96875 " fill-opacity="1" fill-rule="nonzero"/><path fill="#7655fa" d="M 92.851562 184.667969 C 88.972656 180.785156 86.832031 175.625 86.832031 170.132812 C 86.832031 164.644531 88.972656 159.484375 92.855469 155.601562 C 92.960938 155.496094 93.070312 155.394531 93.175781 155.292969 L 93.175781 142.605469 C 93.175781 135.25 87.210938 129.285156 79.855469 129.285156 C 72.5 129.285156 66.535156 135.25 66.535156 142.605469 L 66.535156 156.8125 L 52.328125 156.8125 C 44.96875 156.8125 39.003906 162.777344 39.003906 170.132812 C 39.003906 177.492188 44.96875 183.457031 52.328125 183.457031 L 66.535156 183.457031 L 66.535156 197.664062 C 66.535156 205.019531 72.5 210.984375 79.855469 210.984375 C 87.210938 210.984375 93.175781 205.019531 93.175781 197.664062 L 93.175781 184.976562 C 93.070312 184.875 92.960938 184.773438 92.851562 184.667969 " fill-opacity="1" fill-rule="nonzero"/><path fill="#ffffff" d="M 71.359375 139.808594 C 72.25 137.125 74.371094 135 77.058594 134.113281 C 77.484375 133.972656 77.773438 133.578125 77.773438 133.128906 L 77.773438 133.121094 C 77.773438 132.414062 77.082031 131.90625 76.40625 132.128906 C 73.09375 133.222656 70.476562 135.84375 69.382812 139.15625 C 69.160156 139.828125 69.664062 140.523438 70.375 140.523438 C 70.824219 140.523438 71.21875 140.234375 71.359375 139.808594 " fill-opacity="1" fill-rule="nonzero"/><path fill="#ffffff" d="M 49.53125 178.519531 C 46.847656 177.632812 44.722656 175.507812 43.835938 172.820312 C 43.695312 172.394531 43.296875 172.105469 42.847656 172.105469 L 42.84375 172.105469 C 42.136719 172.105469 41.628906 172.800781 41.851562 173.472656 C 42.945312 176.785156 45.566406 179.40625 48.878906 180.5 C 49.550781 180.722656 50.246094 180.214844 50.246094 179.503906 C 50.246094 179.054688 49.957031 178.660156 49.53125 178.519531 " fill-opacity="1" fill-rule="nonzero"/><g clip-path="url(#2cabef9c87)"><path fill="#e1f0fa" d="M 141.621094 200.5 C 136.214844 200.5 131.828125 204.890625 131.828125 210.292969 C 131.828125 215.695312 136.214844 220.082031 141.621094 220.082031 Z M 141.621094 200.5 " fill-opacity="1" fill-rule="evenodd"/></g><g clip-path="url(#1ec5bffbc6)"><g clip-path="url(#bb0e1cb6a2)"><path fill="url(#14c3c631c0)" d="M 132.292969 200.964844 L 141.589844 200.964844 L 141.589844 219.617188 L 132.292969 219.617188 Z M 132.292969 200.964844 " fill-rule="nonzero"/></g></g><g clip-path="url(#b3c7dba1ce)"><path fill="#e1f0fa" d="M 141.621094 203.296875 C 137.757812 203.296875 134.625 206.429688 134.625 210.292969 C 134.625 214.15625 137.757812 217.289062 141.621094 217.289062 Z M 141.621094 203.296875 " fill-opacity="1" fill-rule="evenodd"/></g><g clip-path="url(#9b6248f332)"><path fill="#e1f0fa" d="M 141.621094 206.515625 C 139.535156 206.515625 137.84375 208.207031 137.84375 210.292969 C 137.84375 212.378906 139.535156 214.070312 141.621094 214.070312 Z M 141.621094 206.515625 " fill-opacity="1" fill-rule="evenodd"/></g><g clip-path="url(#9b85b51494)"><path fill="#e1f0fa" d="M 141.621094 200.5 C 147.023438 200.5 151.410156 204.890625 151.410156 210.292969 C 151.410156 215.695312 147.023438 220.082031 141.621094 220.082031 Z M 141.621094 200.5 " fill-opacity="1" fill-rule="evenodd"/></g><g clip-path="url(#1bf4466b02)"><g clip-path="url(#f3e0461a0b)"><path fill="url(#0e58b06c72)" d="M 150.949219 200.964844 L 141.621094 200.964844 L 141.621094 219.617188 L 150.949219 219.617188 Z M 150.949219 200.964844 " fill-rule="nonzero"/></g></g><g clip-path="url(#4fa909bc9f)"><path fill="#e1f0fa" d="M 141.621094 203.296875 C 145.484375 203.296875 148.617188 206.429688 148.617188 210.292969 C 148.617188 214.15625 145.484375 217.289062 141.621094 217.289062 Z M 141.621094 203.296875 " fill-opacity="1" fill-rule="evenodd"/></g><g clip-path="url(#ba8cbdbae6)"><path fill="#e1f0fa" d="M 141.621094 206.515625 C 143.707031 206.515625 145.398438 208.207031 145.398438 210.292969 C 145.398438 212.378906 143.707031 214.070312 141.621094 214.070312 Z M 141.621094 206.515625 " fill-opacity="1" fill-rule="evenodd"/></g><g fill="#7655fa" fill-opacity="1"><g transform="translate(156.885102, 171.999427)"><g><path d="M 27.71875 -23.109375 C 27.71875 -21.316406 27.289062 -19.640625 26.4375 -18.078125 C 25.59375 -16.515625 24.265625 -15.25 22.453125 -14.28125 C 20.648438 -13.320312 18.375 -12.84375 15.625 -12.84375 L 10.015625 -12.84375 L 10.015625 0 L 3.3125 0 L 3.3125 -33.46875 L 15.625 -33.46875 C 18.21875 -33.46875 20.425781 -33.019531 22.25 -32.125 C 24.070312 -31.226562 25.4375 -30 26.34375 -28.4375 C 27.257812 -26.875 27.71875 -25.097656 27.71875 -23.109375 Z M 15.34375 -18.265625 C 17.195312 -18.265625 18.570312 -18.6875 19.46875 -19.53125 C 20.363281 -20.382812 20.8125 -21.578125 20.8125 -23.109375 C 20.8125 -26.367188 18.988281 -28 15.34375 -28 L 10.015625 -28 L 10.015625 -18.265625 Z M 15.34375 -18.265625 "/></g></g></g><g fill="#7655fa" fill-opacity="1"><g transform="translate(188.287329, 171.999427)"><g><path d="M 18.265625 -26.953125 C 20.285156 -26.953125 22.078125 -26.507812 23.640625 -25.625 C 25.203125 -24.75 26.421875 -23.457031 27.296875 -21.75 C 28.179688 -20.039062 28.625 -17.984375 28.625 -15.578125 L 28.625 0 L 21.921875 0 L 21.921875 -14.671875 C 21.921875 -16.785156 21.390625 -18.410156 20.328125 -19.546875 C 19.273438 -20.679688 17.835938 -21.25 16.015625 -21.25 C 14.160156 -21.25 12.695312 -20.679688 11.625 -19.546875 C 10.550781 -18.410156 10.015625 -16.785156 10.015625 -14.671875 L 10.015625 0 L 3.3125 0 L 3.3125 -35.484375 L 10.015625 -35.484375 L 10.015625 -23.25 C 10.878906 -24.40625 12.03125 -25.3125 13.46875 -25.96875 C 14.90625 -26.625 16.503906 -26.953125 18.265625 -26.953125 Z M 18.265625 -26.953125 "/></g></g></g><g fill="#7655fa" fill-opacity="1"><g transform="translate(222.230447, 171.999427)"><g><path d="M 1.578125 -13.375 C 1.578125 -16.0625 2.113281 -18.441406 3.1875 -20.515625 C 4.257812 -22.597656 5.710938 -24.195312 7.546875 -25.3125 C 9.390625 -26.4375 11.445312 -27 13.71875 -27 C 15.695312 -27 17.425781 -26.597656 18.90625 -25.796875 C 20.394531 -24.992188 21.585938 -23.988281 22.484375 -22.78125 L 22.484375 -26.5625 L 29.25 -26.5625 L 29.25 0 L 22.484375 0 L 22.484375 -3.890625 C 21.617188 -2.640625 20.425781 -1.601562 18.90625 -0.78125 C 17.394531 0.03125 15.648438 0.4375 13.671875 0.4375 C 11.429688 0.4375 9.390625 -0.132812 7.546875 -1.28125 C 5.710938 -2.4375 4.257812 -4.0625 3.1875 -6.15625 C 2.113281 -8.25 1.578125 -10.65625 1.578125 -13.375 Z M 22.484375 -13.28125 C 22.484375 -14.914062 22.164062 -16.316406 21.53125 -17.484375 C 20.894531 -18.648438 20.03125 -19.539062 18.9375 -20.15625 C 17.851562 -20.78125 16.6875 -21.09375 15.4375 -21.09375 C 14.195312 -21.09375 13.046875 -20.789062 11.984375 -20.1875 C 10.929688 -19.582031 10.078125 -18.695312 9.421875 -17.53125 C 8.765625 -16.363281 8.4375 -14.976562 8.4375 -13.375 C 8.4375 -11.78125 8.765625 -10.382812 9.421875 -9.1875 C 10.078125 -7.988281 10.941406 -7.066406 12.015625 -6.421875 C 13.085938 -5.785156 14.226562 -5.46875 15.4375 -5.46875 C 16.6875 -5.46875 17.851562 -5.78125 18.9375 -6.40625 C 20.03125 -7.03125 20.894531 -7.925781 21.53125 -9.09375 C 22.164062 -10.257812 22.484375 -11.65625 22.484375 -13.28125 Z M 22.484375 -13.28125 "/></g></g></g><g fill="#7655fa" fill-opacity="1"><g transform="translate(256.988569, 171.999427)"><g><path d="M 10.015625 -22.4375 C 10.878906 -23.84375 12.003906 -24.945312 13.390625 -25.75 C 14.785156 -26.550781 16.378906 -26.953125 18.171875 -26.953125 L 18.171875 -19.90625 L 16.40625 -19.90625 C 14.289062 -19.90625 12.695312 -19.40625 11.625 -18.40625 C 10.550781 -17.414062 10.015625 -15.691406 10.015625 -13.234375 L 10.015625 0 L 3.3125 0 L 3.3125 -26.5625 L 10.015625 -26.5625 Z M 10.015625 -22.4375 "/></g></g></g><g fill="#7655fa" fill-opacity="1"><g transform="translate(278.610769, 171.999427)"><g><path d="M 36.296875 -26.953125 C 39.554688 -26.953125 42.1875 -25.953125 44.1875 -23.953125 C 46.1875 -21.953125 47.1875 -19.160156 47.1875 -15.578125 L 47.1875 0 L 40.46875 0 L 40.46875 -14.671875 C 40.46875 -16.753906 39.941406 -18.34375 38.890625 -19.4375 C 37.835938 -20.539062 36.398438 -21.09375 34.578125 -21.09375 C 32.753906 -21.09375 31.304688 -20.539062 30.234375 -19.4375 C 29.160156 -18.34375 28.625 -16.753906 28.625 -14.671875 L 28.625 0 L 21.921875 0 L 21.921875 -14.671875 C 21.921875 -16.753906 21.390625 -18.34375 20.328125 -19.4375 C 19.273438 -20.539062 17.835938 -21.09375 16.015625 -21.09375 C 14.160156 -21.09375 12.695312 -20.539062 11.625 -19.4375 C 10.550781 -18.34375 10.015625 -16.753906 10.015625 -14.671875 L 10.015625 0 L 3.3125 0 L 3.3125 -26.5625 L 10.015625 -26.5625 L 10.015625 -23.359375 C 10.878906 -24.472656 11.988281 -25.347656 13.34375 -25.984375 C 14.707031 -26.628906 16.207031 -26.953125 17.84375 -26.953125 C 19.914062 -26.953125 21.765625 -26.507812 23.390625 -25.625 C 25.023438 -24.75 26.289062 -23.492188 27.1875 -21.859375 C 28.050781 -23.398438 29.304688 -24.632812 30.953125 -25.5625 C 32.597656 -26.488281 34.378906 -26.953125 36.296875 -26.953125 Z M 36.296875 -26.953125 "/></g></g></g><g fill="#7655fa" fill-opacity="1"><g transform="translate(331.107157, 171.999427)"><g><path d="M 1.578125 -13.375 C 1.578125 -16.0625 2.113281 -18.441406 3.1875 -20.515625 C 4.257812 -22.597656 5.710938 -24.195312 7.546875 -25.3125 C 9.390625 -26.4375 11.445312 -27 13.71875 -27 C 15.695312 -27 17.425781 -26.597656 18.90625 -25.796875 C 20.394531 -24.992188 21.585938 -23.988281 22.484375 -22.78125 L 22.484375 -26.5625 L 29.25 -26.5625 L 29.25 0 L 22.484375 0 L 22.484375 -3.890625 C 21.617188 -2.640625 20.425781 -1.601562 18.90625 -0.78125 C 17.394531 0.03125 15.648438 0.4375 13.671875 0.4375 C 11.429688 0.4375 9.390625 -0.132812 7.546875 -1.28125 C 5.710938 -2.4375 4.257812 -4.0625 3.1875 -6.15625 C 2.113281 -8.25 1.578125 -10.65625 1.578125 -13.375 Z M 22.484375 -13.28125 C 22.484375 -14.914062 22.164062 -16.316406 21.53125 -17.484375 C 20.894531 -18.648438 20.03125 -19.539062 18.9375 -20.15625 C 17.851562 -20.78125 16.6875 -21.09375 15.4375 -21.09375 C 14.195312 -21.09375 13.046875 -20.789062 11.984375 -20.1875 C 10.929688 -19.582031 10.078125 -18.695312 9.421875 -17.53125 C 8.765625 -16.363281 8.4375 -14.976562 8.4375 -13.375 C 8.4375 -11.78125 8.765625 -10.382812 9.421875 -9.1875 C 10.078125 -7.988281 10.941406 -7.066406 12.015625 -6.421875 C 13.085938 -5.785156 14.226562 -5.46875 15.4375 -5.46875 C 16.6875 -5.46875 17.851562 -5.78125 18.9375 -6.40625 C 20.03125 -7.03125 20.894531 -7.925781 21.53125 -9.09375 C 22.164062 -10.257812 22.484375 -11.65625 22.484375 -13.28125 Z M 22.484375 -13.28125 "/></g></g></g><g fill="#7655fa" fill-opacity="1"><g transform="translate(158.935975, 206.727053)"><g><path d="M 9.484375 0.203125 C 7.941406 0.203125 6.5625 -0.046875 5.34375 -0.546875 C 4.125 -1.046875 3.148438 -1.785156 2.421875 -2.765625 C 1.691406 -3.742188 1.304688 -4.921875 1.265625 -6.296875 L 6.71875 -6.296875 C 6.800781 -5.515625 7.070312 -4.921875 7.53125 -4.515625 C 7.988281 -4.109375 8.585938 -3.90625 9.328125 -3.90625 C 10.085938 -3.90625 10.6875 -4.078125 11.125 -4.421875 C 11.570312 -4.773438 11.796875 -5.265625 11.796875 -5.890625 C 11.796875 -6.398438 11.617188 -6.828125 11.265625 -7.171875 C 10.921875 -7.515625 10.492188 -7.796875 9.984375 -8.015625 C 9.472656 -8.234375 8.742188 -8.484375 7.796875 -8.765625 C 6.441406 -9.179688 5.332031 -9.597656 4.46875 -10.015625 C 3.613281 -10.441406 2.875 -11.0625 2.25 -11.875 C 1.632812 -12.695312 1.328125 -13.769531 1.328125 -15.09375 C 1.328125 -17.0625 2.035156 -18.597656 3.453125 -19.703125 C 4.867188 -20.816406 6.71875 -21.375 9 -21.375 C 11.320312 -21.375 13.191406 -20.816406 14.609375 -19.703125 C 16.035156 -18.597656 16.800781 -17.050781 16.90625 -15.0625 L 11.34375 -15.0625 C 11.300781 -15.75 11.050781 -16.285156 10.59375 -16.671875 C 10.132812 -17.066406 9.546875 -17.265625 8.828125 -17.265625 C 8.203125 -17.265625 7.695312 -17.097656 7.3125 -16.765625 C 6.9375 -16.429688 6.75 -15.957031 6.75 -15.34375 C 6.75 -14.65625 7.066406 -14.117188 7.703125 -13.734375 C 8.347656 -13.359375 9.351562 -12.953125 10.71875 -12.515625 C 12.070312 -12.054688 13.175781 -11.613281 14.03125 -11.1875 C 14.882812 -10.769531 15.617188 -10.160156 16.234375 -9.359375 C 16.859375 -8.566406 17.171875 -7.535156 17.171875 -6.265625 C 17.171875 -5.066406 16.863281 -3.976562 16.25 -3 C 15.644531 -2.019531 14.757812 -1.238281 13.59375 -0.65625 C 12.4375 -0.0820312 11.066406 0.203125 9.484375 0.203125 Z M 9.484375 0.203125 "/></g></g></g><g fill="#7655fa" fill-opacity="1"><g transform="translate(178.795704, 206.727053)"><g><path d="M 18.96875 -16.75 L 8.46875 7.953125 L 2.9375 7.953125 L 6.78125 -0.5625 L -0.03125 -16.75 L 5.703125 -16.75 L 9.578125 -6.265625 L 13.421875 -16.75 Z M 18.96875 -16.75 "/></g></g></g><g fill="#7655fa" fill-opacity="1"><g transform="translate(199.165398, 206.727053)"><g><path d="M 12.0625 -16.921875 C 14.03125 -16.921875 15.597656 -16.285156 16.765625 -15.015625 C 17.929688 -13.742188 18.515625 -12 18.515625 -9.78125 L 18.515625 0 L 13.421875 0 L 13.421875 -9.09375 C 13.421875 -10.21875 13.128906 -11.085938 12.546875 -11.703125 C 11.960938 -12.328125 11.179688 -12.640625 10.203125 -12.640625 C 9.222656 -12.640625 8.441406 -12.328125 7.859375 -11.703125 C 7.285156 -11.085938 7 -10.21875 7 -9.09375 L 7 0 L 1.859375 0 L 1.859375 -16.75 L 7 -16.75 L 7 -14.53125 C 7.519531 -15.269531 8.21875 -15.851562 9.09375 -16.28125 C 9.976562 -16.707031 10.96875 -16.921875 12.0625 -16.921875 Z M 12.0625 -16.921875 "/></g></g></g><g fill="#7655fa" fill-opacity="1"><g transform="translate(220.79503, 206.727053)"><g><path d="M 0.84375 -8.375 C 0.84375 -10.113281 1.195312 -11.632812 1.90625 -12.9375 C 2.613281 -14.238281 3.601562 -15.238281 4.875 -15.9375 C 6.144531 -16.632812 7.601562 -16.984375 9.25 -16.984375 C 11.34375 -16.984375 13.09375 -16.429688 14.5 -15.328125 C 15.914062 -14.234375 16.84375 -12.6875 17.28125 -10.6875 L 11.828125 -10.6875 C 11.367188 -11.96875 10.476562 -12.609375 9.15625 -12.609375 C 8.21875 -12.609375 7.46875 -12.242188 6.90625 -11.515625 C 6.34375 -10.785156 6.0625 -9.738281 6.0625 -8.375 C 6.0625 -7.007812 6.34375 -5.960938 6.90625 -5.234375 C 7.46875 -4.503906 8.21875 -4.140625 9.15625 -4.140625 C 10.476562 -4.140625 11.367188 -4.78125 11.828125 -6.0625 L 17.28125 -6.0625 C 16.84375 -4.101562 15.910156 -2.5625 14.484375 -1.4375 C 13.066406 -0.320312 11.320312 0.234375 9.25 0.234375 C 7.601562 0.234375 6.144531 -0.113281 4.875 -0.8125 C 3.601562 -1.507812 2.613281 -2.507812 1.90625 -3.8125 C 1.195312 -5.113281 0.84375 -6.632812 0.84375 -8.375 Z M 0.84375 -8.375 "/></g></g></g></svg>